<?xml version="1.0" encoding="utf-8"?>
<!-- Generator: Adobe Illustrator 27.5.0, SVG Export Plug-In . SVG Version: 6.00 Build 0)  -->
<svg version="1.1" xmlns="http://www.w3.org/2000/svg" xmlns:xlink="http://www.w3.org/1999/xlink" x="0px" y="0px"
	 viewBox="0 0 1100 800" style="enable-background:new 0 0 1100 800;" xml:space="preserve">
<g id="background">
	<rect style="fill:#FFFFFF;" width="1100" height="800"/>
</g>
<g id="object">
	<path style="opacity:0.09;" d="M916.893,643.107c15.693,2.996,31.157,7.004,46.261,12.396c9.32,3.327,19.366,8.05,23.011,17.25
		c4.482,11.314-3.426,24.484-14.214,30.115c-10.788,5.631-23.52,5.669-35.689,5.594c-126.75-0.789-253.503,0.077-380.252,0.943
		c-20.57,0.141-41.14,0.281-61.71,0.422c-3.779,0.026-7.742,0.098-11.039,1.945c-7.379,4.134-1.561,7.643-2.659,12.633
		c-1.349,6.135-4.3,11.393-9.661,14.982c-8.028,5.375-18.121,6.337-27.748,7.143c-29.666,2.483-59.331,4.966-88.997,7.45
		c-43.645,3.653-87.501,7.309-131.185,4.15c-15.891-1.149-32.298-3.397-45.794-11.864c-7.454-4.676-13.97-11.51-16.27-20.003
		c-2.3-8.493,0.517-18.67,8.017-23.272c2.75-1.687,5.967-2.585,8.518-4.561c2.551-1.976,4.273-5.698,2.575-8.441
		c-10.169,0.013-96.261,5.792-67.958-25.286c11.611-12.75,56.834-8.536,72.191-9.573c41.367-2.794,82.803-4.478,124.253-5.378
		c38.913-0.846,76.646-4.436,115.507-6.685c82.717-4.788,165.525-8.207,248.377-9.357c43.076-0.598,86.161-0.584,129.234,0.17
		C840.181,634.553,879.196,635.91,916.893,643.107z"/>
	<g>
		<g>
			<path style="fill:#E5D1BD;" d="M166.015,643.77c-3.14,0.208-6.013-0.895-9.056-1.237c0.145-10.75,1.31-21.058,3.626-31.672
				c4.733,5.254,8.718,2.2,8.557,12.072C169.09,626.128,165.4,638.907,166.015,643.77z"/>
			<path style="fill:#3B455A;" d="M156.272,637.186c-3.571-1.278-4.376,7.25-4.404,9.255c-0.016,1.205,0.126,2.434-0.18,3.599
				c-0.337,1.283-1.183,2.361-2.009,3.399c-1.729,2.173-3.458,4.347-5.186,6.52c-0.777,0.977-1.568,1.978-1.985,3.155
				c-1.032,2.917,0.673,6.376,3.435,7.772c9.584,4.841,18.339-6.882,20.414-14.621c0.318-1.186,0.55-2.394,0.782-3.6
				c0.48-2.495,2.368-7.935,1.378-10.372c-1.156-2.844-4.656-0.783-6.949-1.855C159.442,639.443,157.717,637.705,156.272,637.186z"
				/>
		</g>
		<path style="fill:#BCBEC0;" d="M224.36,466.639c-8.935,24.325-19.245,48.118-25.125,73.581
			c-7.264,31.456-18.975,62.13-24.985,93.656c-3.883,0.126-7.776-0.04-11.635-0.495c-4.424-0.522-11.446-1.716-13.042-6.547
			c-0.816-2.469,0.049-6.484,0.174-9.049c0.399-8.215,0.986-16.421,1.59-24.623c1.709-23.206,2.881-46.696,7.15-69.573
			c4.49-24.066,8.79-48.215,12.741-72.278c2.042-12.437,4.557-24.796,7.65-37.015c0.797-3.148,9.097-35.598,10.726-35.339
			c19.339,3.078,37.43,9.482,54.273,19.47c1.637,0.971,3.217,2.127,3.786,3.856s0.053,3.217-0.474,4.786
			c-5.034,14.957-11.744,28.984-17.111,43.883C228.209,456.135,226.314,461.318,224.36,466.639z"/>
	</g>
	<g>
		<g>
			<path style="fill:#E5D1BD;" d="M229.556,638.255c2.936,1.133,6.007,0.934,9.014,1.512c3.059-10.306,5.012-20.495,5.958-31.317
				c-6.081,3.609-8.978-0.492-11.76,8.981C231.867,620.497,231.59,633.795,229.556,638.255z"/>
			<path style="fill:#3B455A;" d="M241.644,636.664c0.007,5.829,4.595,12.105,7.133,17.347c0.299,0.617,0.603,1.258,0.616,1.943
				c0.018,1.018-0.604,1.922-1.2,2.747c-0.827,1.146-1.727,2.349-3.043,2.864c-1.293,0.506-2.746,0.252-4.102-0.045
				c-2.269-0.498-4.516-1.1-6.73-1.803c-0.552-0.175-1.115-0.364-1.564-0.728c-0.533-0.432-0.853-1.065-1.158-1.68
				c-1.566-3.152-2.897-5.388-2.813-8.899c0.087-3.627,0.545-7.384-0.118-10.978c-0.328-1.743-0.762-3.972,0.731-4.929
				c1.155-0.74,3.268,0.28,4.525,0.485c2.218,0.362,4.267,0.225,6.31,1.389c0.416,0.237,0.821,0.523,1.077,0.927
				C241.569,635.714,241.643,636.178,241.644,636.664z"/>
		</g>
		<path style="fill:#BCBEC0;" d="M226.532,451.786c1.296,25.881,4.063,51.664,2.104,77.724c-2.42,32.193-0.362,64.962-4,96.849
			c3.67,1.275,7.436,2.275,11.256,2.988c4.379,0.817,11.438,1.766,14.399-2.372c1.513-2.115,1.882-6.206,2.526-8.691
			c2.062-7.961,3.943-15.971,5.805-23.981c5.27-22.664,11.137-45.44,13.866-68.551c2.871-24.313,5.947-48.648,9.332-72.797
			c1.749-12.481,3.024-25.029,3.705-37.615c0.175-3.243,1.901-36.693,0.269-36.93c-19.379-2.813-38.557-2.08-57.607,2.448
			c-1.851,0.44-3.704,1.074-4.761,2.555c-1.058,1.481-1.008,3.056-0.97,4.71c0.357,15.777,2.593,31.165,3.285,46.987
			C225.981,440.614,226.249,446.126,226.532,451.786z"/>
	</g>
	<g>
		<g>
			<g>
				<g>
					<path style="fill:#3B455A;" d="M498.662,663.131c0.414-1.353,1.115-2.596,2.155-3.504c0.548-0.478,1.176-0.852,1.709-1.348
						c2.507-2.333,2.223-4.563,5.911-4.057c4.197,0.576,8.378,1.349,12.562,2.022c0.165,0.027,0.339,0.057,0.469,0.167
						c0.187,0.158,0.229,0.432,0.259,0.68c0.173,1.45,0.346,2.899,0.518,4.349c0.467,3.919,3.978,5.066,6.855,6.615
						c0.739,0.398,1.507,0.8,2.287,1.213c3.263,1.73,13.156,5.578,8.274,10.688c-2.018,2.112-5.514,2.111-8.201,2.384
						c-2.596,0.264-5.208-0.359-7.767-0.715c-8.208-1.551-15.778-3.981-23.208-7.943c-2.661-1.42-2.49-5.438-2.251-8.29
						C498.298,664.631,498.438,663.865,498.662,663.131z"/>
					<g>
						<polygon style="fill:#BCBEC0;" points="510.406,408.316 502.038,441.073 511.316,534.425 500.414,658.625 524.928,660.7 
							556.735,541.892 581.827,411.902 						"/>
					</g>
				</g>
				<g>
					<path style="fill:#3B455A;" d="M635.695,666.356c-0.06-1.413,0.187-2.819,0.866-4.021c0.358-0.633,0.825-1.195,1.162-1.84
						c1.588-3.035,0.577-5.043,4.223-5.794c4.149-0.854,8.349-1.517,12.519-2.275c0.165-0.03,0.339-0.059,0.498,0.001
						c0.229,0.087,0.36,0.331,0.471,0.555c0.646,1.309,1.291,2.619,1.936,3.928c1.745,3.54,5.437,3.453,8.666,3.956
						c0.83,0.13,1.687,0.253,2.56,0.383c3.653,0.545,14.263,0.88,11.36,7.324c-1.2,2.664-4.496,3.826-6.939,4.978
						c-2.36,1.113-5.031,1.396-7.562,1.911c-8.256,1.27-16.203,1.498-24.529,0.236c-2.982-0.453-4.158-4.299-4.883-7.068
						C635.851,667.891,635.728,667.123,635.695,666.356z"/>
					<g>
						<polygon style="fill:#BCBEC0;" points="561.938,422.166 552.925,447.015 604.78,540.779 635.847,661.523 659.653,655.319 
							650.093,532.7 630.479,401.771 						"/>
					</g>
				</g>
			</g>
			<path style="fill:#7DB5DB;" d="M481.855,417.145c0.203-6.094,0.564-11.195,0.615-13.019c0.457-16.501,2.036-33.099,4.276-49.745
				c2.022-15.031,4.591-30.101,7.372-45.242c4.361-23.746,8.325-44.667,17.067-67.249c3.105-8.02,6.29-16.184,11.65-22.861
				c4.938-6.153,12.305-10.378,19.702-12.855c3.456-1.157,7.344-2.145,10.802-2.928c3.917-0.887,5.882,0.881,9.633,2.487
				c2.521,1.079,5.478,1.367,8.091,2.283c15.516,5.439,24.378,16.393,29.628,31.942c4.225,12.511,8.449,25.021,12.674,37.532
				c3.469,10.274,6.94,20.551,9.948,30.974c7.874,27.284,12.528,55.4,15.948,83.584c1.714,14.13,3.118,28.296,4.47,42.466
				c0.864,9.056-3.742,5.247-9.179,2.48c-9.371-4.769-18.68-9.798-29.191-11.52c-5.104-0.836-10.303-0.877-15.474-0.803
				c-31.455,0.449-63.023,5.128-92.565,15.939c-1.756,0.643-3.54,1.327-4.974,2.527c-1.914,1.602-4.506,5.245-7.271,3.341
				c-1.719-1.184-2.135-5.22-2.45-7.038C481.363,432.145,481.61,424.513,481.855,417.145z"/>
		</g>
		<g>
			<g>
				<g>
					<path style="fill:#534741;" d="M556.866,141.526c3.983,4.398,6.675,9.896,8.253,15.637c0.419,1.526,0.931,3.283,2.365,3.915
						c1.535,0.676,0.871,3.076,1.571,1.546c0.7-1.53,3.055-6.827,2.832-8.506c-0.524-3.934-1.419-7.821-2.668-11.59
						c-1.086-3.278-2.561-6.626-5.302-8.69c-1.625-1.224-3.576-1.901-5.492-2.552c-2.779-0.944-5.637-1.883-8.557-1.778
						c-5.034,0.181-7.591,2.612-2.551,5.066C550.926,136.33,554.138,138.513,556.866,141.526z"/>
				</g>
				<g>
					<g>
						<path style="fill:#EAC5B0;" d="M541.936,214.131c6.782-0.876,13.564-1.751,20.347-2.627
							c-0.323-6.057-1.085-12.112-2.276-18.088c5.551-2.32,11.915-5.763,12.484-12.367c0.179-2.08-0.282-4.194-0.739-6.26
							c-1.889-8.542-3.779-17.084-5.668-25.627c-0.653-2.954-1.342-5.995-2.962-8.507c-2.842-4.407-7.928-6.264-12.684-7.08
							c-12.139-2.081-25.02,1.035-33.758,9.896c-2.326,2.358-4.384,5.18-5.258,8.574c-1.347,5.234,0.28,10.949,1.892,16.269
							c1.488,4.911,2.976,9.822,4.464,14.733c1.712,5.648,4.071,12.062,9.148,14.098c2.696,1.081,5.772,0.694,8.255,2.321
							C539.56,202.336,539.439,209.237,541.936,214.131z"/>
					</g>
				</g>
				<g>
					<path style="fill:#3B455A;" d="M573.008,170.926c-0.456-1.56-2.195-6.04-3.869-2.596c-0.438,0.9-0.342,2.011-0.148,3.034
						c0.194,1.023,0.479,2.056,0.383,3.082c-0.22,2.355-2.378,3.894-4.513,4.338c-0.849,0.177-1.742,0.231-2.589-0.032
						c-0.822-0.255-1.55-0.792-2.262-1.32c-1.728-1.282-3.456-2.563-5.184-3.845c-2.97-2.203-7.351,0.035-10.415,1.171
						c-3.531,1.31-6.918,3.253-9.337,6.363c-0.244,0.314-0.478,0.639-0.713,0.963c-0.574,0.792-1.152,1.578-1.891,2.18
						c-2.494,2.03-6.309,1.368-8.875-0.788c-1.177-0.988-2.37-2.333-3.819-2.214c-1.133,0.093-2.019,1.135-2.343,2.307
						c-0.324,1.172-0.191,2.451,0.01,3.679c0.731,4.468,2.367,8.875,5.139,12.356c6.012,7.548,14.125,6.801,21.996,4.815
						c3.111-0.785,6.223-1.57,9.334-2.355c5.688-1.435,11.679-3.048,15.724-7.521c3.568-3.946,4.935-9.588,4.756-15.132
						C574.3,176.549,573.813,173.684,573.008,170.926z M554.829,187.684c-2.541,2.742-5.836,3.606-9.428,3.341
						c-1.527-0.113-1.478-2.685,0.051-2.572c2.977,0.22,5.598-0.398,7.714-2.681C554.23,184.624,555.888,186.543,554.829,187.684z"
						/>
				</g>
				<g>
					<path style="fill:#3B455A;" d="M563.632,124.444c0.08-2.192,0.006-4.391-0.22-6.576c-1.778,1.13-3.844,1.792-5.946,1.905
						c-0.285-1.225-0.57-2.45-0.856-3.675c-0.242-1.018-13.98,1.348-15.104,1.507c-10.523,1.482-20.153,2.806-28.202,10.558
						c-6.875,6.622-10.345,14.967-9.429,24.598c0.875,9.2,6.421,20.217,13.201,26.48c-0.573-2.372-3.204-7.678-3.169-10.064
						c-0.18-2.342,0.09-4.702,0.691-6.959c1.2-4.508,3.711-8.643,6.954-11.923c5.17-5.229,11.74-8.864,18.541-11.454
						c6.23-2.373,13.885-4.995,20.642-4.705c3.248,0.14,3.934,0.804,5.068-2.753c0.2-0.627,1.311-7.673,1.057-7.62
						C565.785,123.99,564.708,124.217,563.632,124.444z"/>
				</g>
			</g>
			<g>
				<path style="fill:#E6E6E7;" d="M472.175,152.307l6.791,29.345l12.144,7.247l45.383-10.502l5.944-13.337
					c0.499-1.435,2.244-1.839,3.323-0.769l11.368,9.33l45.213-10.463l7.725-11.846l-6.791-29.345L472.175,152.307z"/>
				<g>
					<path style="fill:#587BC9;" d="M530.294,171.881l-38.721,8.961c-1.263,0.292-2.524-0.495-2.816-1.757l-4.987-21.551
						c-0.292-1.263,0.495-2.524,1.757-2.816l38.721-8.961c1.263-0.292,2.523,0.495,2.816,1.757l4.987,21.551
						C532.343,170.328,531.557,171.589,530.294,171.881z"/>
					<path style="fill:#EAC5B0;" d="M598.3,156.143l-38.721,8.961c-1.263,0.292-2.524-0.495-2.816-1.758l-4.987-21.551
						c-0.292-1.263,0.495-2.524,1.758-2.816l38.721-8.961c1.263-0.292,2.524,0.495,2.816,1.757l4.987,21.551
						C600.35,154.59,599.563,155.851,598.3,156.143z"/>
				</g>
			</g>
		</g>
		<g>
			
				<rect x="441.433" y="439.505" transform="matrix(0.9798 -0.2002 0.2002 0.9798 -96.1675 129.6354)" style="fill:#3B455A;" width="302.847" height="201.565"/>
			
				<rect x="417.698" y="406.372" transform="matrix(0.9798 -0.2002 0.2002 0.9798 -73.3751 122.624)" style="fill:#59595B;" width="303.779" height="35.438"/>
			<g>
				<polygon style="fill:#E6E6E7;" points="686.667,418.252 721.95,411.042 714.854,376.321 714.293,376.436 				"/>
				<polygon style="fill:#E6E6E7;" points="417.226,437.141 423.231,466.525 446.61,431.136 				"/>
				<polygon style="fill:#E6E6E7;" points="499.363,420.356 471.738,462.172 526.449,450.992 554.075,409.176 				"/>
				<polygon style="fill:#E6E6E7;" points="606.828,398.396 579.203,440.212 633.914,429.032 661.54,387.216 				"/>
				<polygon style="fill:#3B455A;" points="446.61,431.136 423.231,466.525 424.321,471.862 471.738,462.172 499.363,420.356 				
					"/>
				<polygon style="fill:#3B455A;" points="554.075,409.176 526.449,450.992 579.203,440.212 606.828,398.396 				"/>
				<polygon style="fill:#3B455A;" points="661.54,387.216 633.914,429.032 686.667,418.252 714.293,376.436 				"/>
			</g>
			<g>
				<polygon style="fill:#E6E6E7;" points="449.963,421.667 417.405,437.054 402.262,405.014 402.78,404.769 				"/>
				<polygon style="fill:#E6E6E7;" points="676.914,275.213 689.729,302.328 649.798,288.028 				"/>
				<polygon style="fill:#E6E6E7;" points="601.117,311.034 648.3,327.932 597.812,351.793 550.629,334.895 				"/>
				<polygon style="fill:#E6E6E7;" points="501.949,357.901 549.131,374.799 498.644,398.66 451.461,381.762 				"/>
				<polygon style="fill:#3B455A;" points="649.798,288.028 689.729,302.328 692.056,307.253 648.3,327.932 601.117,311.034 				"/>
				<polygon style="fill:#3B455A;" points="550.629,334.895 597.812,351.793 549.131,374.799 501.949,357.901 				"/>
				<polygon style="fill:#3B455A;" points="451.461,381.762 498.644,398.66 449.963,421.667 402.78,404.769 				"/>
			</g>
			<polygon style="fill:#3B455A;" points="424.321,471.862 402.279,405.064 434.831,389.666 496.044,457.206 			"/>
			<polygon style="opacity:0.42;fill:#272525;" points="434.831,389.666 470.325,412.044 459.396,416.769 			"/>
			<polygon style="opacity:0.42;fill:#272525;" points="468.384,426.687 506.459,455.077 496.044,457.206 			"/>
			<g>
				<path style="fill:#A6A8AA;" d="M432.034,410.195c0.602,2.581-1.003,5.16-3.584,5.762c-2.581,0.602-5.16-1.003-5.762-3.584
					s1.003-5.16,3.584-5.762C428.853,406.009,431.433,407.614,432.034,410.195z"/>
				<path style="fill:#A6A8AA;" d="M437.026,452.75c0.602,2.581-1.003,5.16-3.584,5.762c-2.581,0.601-5.16-1.003-5.762-3.584
					c-0.601-2.581,1.003-5.16,3.584-5.762C433.844,448.565,436.424,450.169,437.026,452.75z"/>
				<path style="fill:#A6A8AA;" d="M471.485,444.719c0.602,2.581-1.003,5.16-3.584,5.762c-2.581,0.601-5.16-1.003-5.762-3.584
					c-0.601-2.581,1.003-5.16,3.584-5.762C468.304,440.534,470.884,442.138,471.485,444.719z"/>
			</g>
			
				<rect x="466.821" y="596.243" transform="matrix(0.9798 -0.2002 0.2002 0.9798 -107.3402 133.1206)" style="fill:#E6E6E7;" width="275.359" height="2.051"/>
			<g>
				
					<rect x="558.294" y="609.269" transform="matrix(0.9798 -0.2002 0.2002 0.9798 -114.0039 124.6776)" style="fill:#E6E6E7;" width="2.262" height="33.448"/>
				
					<rect x="656.101" y="589.283" transform="matrix(0.9798 -0.2002 0.2002 0.9798 -108.021 143.8531)" style="fill:#E6E6E7;" width="2.262" height="33.448"/>
			</g>
			
				<rect x="441.079" y="470.164" transform="matrix(0.9798 -0.2002 0.2002 0.9798 -82.6403 125.4161)" style="fill:#E6E6E7;" width="275.359" height="2.262"/>
		</g>
		<g>
			<path style="fill:#EAC5B0;" d="M475.042,391.026c0.267,1.522,0.472,3.119,1.34,4.397c1.198,1.767,3.382,2.539,5.434,3.124
				c3.224,0.919,6.569,1.655,9.908,1.351c3.339-0.304,6.705-1.781,8.623-4.532c-1.654-3.157-3.543-6.191-5.646-9.069
				c-0.171-0.909,1.09-1.332,2.015-1.329c0.925,0.003,2.184-0.25,2.183-1.176c0-0.293-0.149-0.563-0.3-0.814
				c-1.742-2.886-4.356-5.123-6.924-7.306c-3.399-2.89-6.798-5.78-10.197-8.67c-0.638-0.542-1.32-1.106-2.146-1.24
				c-0.746-0.121-1.496,0.127-2.211,0.371c-3.054,1.044-6.191,1.977-9.15,3.231C468.605,376.882,473.722,383.497,475.042,391.026z"
				/>
			<polygon style="fill:#7DB5DB;" points="529.442,212.801 436.355,309.61 468.131,381.727 490.911,370.577 477.117,314.202 
				533.906,282.936 			"/>
		</g>
		<g>
			<path style="fill:#EACDB0;" d="M673.628,205.731c0.319-0.37,0.657-0.788,0.647-1.276c-0.013-0.623-0.571-1.07-0.999-1.523
				c-1.789-1.894-1.469-5.389,0.704-6.827c2.173-1.438,5.613-0.252,6.328,2.254c2.677-1.088,5.128-2.728,7.155-4.786
				c0.763-0.775,1.59-1.669,2.677-1.713c0.66-0.027,1.283,0.275,1.872,0.574c1.292,0.656,2.573,1.334,3.842,2.033
				c1.682,0.926,3.462,2.023,4.146,3.817c1.073,2.815-1.011,5.765-2.963,8.059c-0.434,0.509-0.876,1.026-1.44,1.385
				c-0.67,0.426-1.464,0.599-2.22,0.842c-1.802,0.581-3.434,1.584-5.045,2.578c-4.977,3.071-9.954,6.141-14.932,9.212
				c-0.158,0.079-4.238-6.778-4.236-7.725C669.172,209.888,671.958,207.663,673.628,205.731z"/>
			<polygon style="fill:#7DB5DB;" points="571.062,208.015 636.762,235.204 666.296,208.015 684.937,214.598 636.762,276.969 
				582.217,276.969 			"/>
		</g>
		<g>
			<g>
				<g>
					<path style="fill:#587BC9;" d="M748.686,225.581l-118.204-41.746c-1.146-0.405-1.752-1.673-1.347-2.819l43.102-122.044
						c0.405-1.146,1.673-1.752,2.819-1.348L793.259,99.37c1.146,0.405,1.752,1.673,1.348,2.819l-43.102,122.044
						C751.1,225.38,749.832,225.986,748.686,225.581z"/>
				</g>
				<g style="opacity:0.1;">
					<path d="M638.518,186.674l105.32,37.195c3.812,1.346,8.015-0.622,9.341-4.374l22.604-64.005
						C753.179,219.495,683.452,197.757,638.518,186.674z"/>
				</g>
				<g>
					<path style="fill:#FFFFFF;" d="M673.944,68.684l-6.91,19.567c3.46-8.123,13.908-24.768,39.317-15.795l-23.066-8.146
						C679.473,62.963,675.269,64.932,673.944,68.684z"/>
				</g>
			</g>
			<g>
				<polygon style="fill:#FFFFFF;" points="745.961,153.643 694.951,94.838 669.335,167.371 				"/>
			</g>
		</g>
	</g>
	<g>
		<g id="XMLID_79_">
			<g id="XMLID_81_">
				<g>
					<polygon style="fill:#7B4F34;" points="816.848,214.913 820.393,206.051 828.17,202.758 828.333,200.774 825.89,200.515 
						831.589,195.954 832.827,190.204 827.553,184.522 819.574,183.285 814.375,189.189 812.503,198.291 807.126,210.22 					"/>
				</g>
			</g>
			<g id="XMLID_80_">
				<g>
					<path style="fill:#305399;" d="M822.819,214.737c0.286,0.53,0.477,1.054,0.552,1.571c0.522,3.577-10.682,18.568-12.499,22.851
						c-3.819,9.003-6.741,18.385-8.695,27.967c13.637-1.077,27.273-2.153,40.91-3.229c-8.729,27.902-20.864,54.737-36.048,79.72
						c-0.605,0.996-1.335,2.077-2.473,2.326c-1.086,0.238-2.16-0.371-3.101-0.964c-20.04-12.631-37.468-29.386-50.876-48.915
						c-11.889-17.316,15.76-41.936,25.943-55.738c9.538-12.927,19.076-25.855,28.615-38.782
						C809.24,204.495,820.163,209.824,822.819,214.737z"/>
				</g>
			</g>
		</g>
		<g>
			<path style="fill:#7B4F34;" d="M843.636,200.651c0.669-2.418,1.524-4.864,3.175-6.752c0.451-0.516,0.962-0.97,1.388-1.49
				c14.872-18.192,46.487-14.507,52.053,14.936c2.995,15.84-6.962,32.843-21.335,38.315c0.56,4.187-0.1,9.275-0.019,12.462
				c0.016,0.659,0.014,1.381-0.386,1.891c-0.356,0.453-0.939,0.624-1.488,0.748c-5.167,1.168-10.732,0.312-15.36-2.364
				c-0.339-0.196-0.685-0.412-0.904-0.746c-0.266-0.406-0.305-0.924-0.331-1.415c-0.178-3.439-0.084-6.889,0.251-10.314
				c-8.548-2.786-14.765-10.834-17.382-19.541C840.796,218.057,841.316,209.027,843.636,200.651z"/>
		</g>
		<g>
			<g>
				<g>
					<path style="fill:#3B455A;" d="M814.566,641.209l-7.004,7.298c-4.512,4.701-2.981,12.695,3.124,14.972
						c3.598,1.341,8.535,0.833,15.124-4.227l14.741-18.74l-2.871-5.643l-16.571-1.582L814.566,641.209z"/>
				</g>
			</g>
			<g>
				<g>
					<path style="fill:#3B455A;" d="M830.047,436.069l-46.07,104.654l33.276,96.381l22.787-1.729l6.425-74.392
						c0,0,69.411-97.32,64.713-100.199S830.047,436.069,830.047,436.069z"/>
				</g>
			</g>
		</g>
		<g>
			<g>
				<g>
					<path style="fill:#3B455A;" d="M938.612,657.912l-4.509,9.054c-2.904,5.833,0.941,13.007,7.448,13.358
						c3.834,0.207,8.395-1.75,13.175-8.546l8.481-22.284l-4.423-4.53l-16.288,3.433L938.612,657.912z"/>
				</g>
			</g>
			<g>
				<g>
					<path style="fill:#3B455A;" d="M864.212,473.355c-6.183,12.589,8.977,44.507,12.599,56.925
						c4.059,13.916,6.096,36.238,14.13,48.445c0.007,0.01,49.012,74.466,49.012,74.466s21.234-8.446,21.234-8.447
						c-4.657-21.154-12.318-43.327-14.938-64.678c-3.79-30.891,19.838-63.6,26.358-94.765c1.9-9.084,3.214-18.53,1.274-27.605
						c-1.94-9.076-7.684-17.794-16.352-21.109c-13.275-5.077-27.45,3.526-39.473,11.107c-14.587,9.198-30.116,17.535-47.071,20.69
						C867.643,469.006,865.479,470.775,864.212,473.355z"/>
				</g>
			</g>
		</g>
		<g>
			<g>
				<path style="fill:#305399;" d="M929.691,269.773c22.637,18.524,31.322,49.949,36.773,79.482
					c4.83,26.171,8.18,52.628,10.029,79.184c0.657,9.441,0.906,19.731-4.359,27.339c-3.467,5.01-8.852,8.095-14.141,10.83
					c-39.503,20.429-83.994,30.238-128.172,28.256c-4.913-0.22-10.09-0.677-14.17-3.607c-3.052-2.192-5.158-5.545-7.022-8.901
					c-18.605-33.496-20.399-74.211-17.928-112.717c1.78-27.734,5.827-56.253,19.841-79.681
					C836.148,247.148,891.959,238.897,929.691,269.773z"/>
			</g>
		</g>
		<g>
			<path style="fill:#7DB5DB;" d="M972.792,344.602c-0.899-0.544-2.004-0.634-2.976-0.242c0,0-133.467,53.241-136.603,54.442
				c-0.523,0.201-1.086,0.313-1.542,0.669c-0.89,0.697-1.364,1.798-1.258,2.921l14.011,148.161c0.173,1.826-1.303,3.358-3.144,3.315
				c-8.153-0.192-16.845,1.871-24.786,5.992c-20.666,10.726-30.782,32.276-22.55,48.041c4.075,7.803,11.889,12.998,22.003,14.629
				c3.587,0.578,7.315,0.68,11.085,0.324c6.484-0.613,13.091-2.581,19.322-5.815c16.164-8.389,26.33-23.575,25.377-37.861
				c0-0.107-0.005-0.215-0.015-0.323l-11.073-117.097c-0.127-1.341,0.648-2.606,1.904-3.107l90.419-36.068
				c1.89-0.754,3.976,0.514,4.167,2.533l7.986,84.448c0.173,1.826-1.304,3.358-3.144,3.315c-8.155-0.193-16.846,1.872-24.785,5.992
				c-9.855,5.114-17.65,12.815-21.953,21.683c-4.46,9.195-4.672,18.556-0.597,26.358c4.075,7.803,11.889,12.998,22.003,14.629
				c9.757,1.574,20.555-0.377,30.407-5.491c16.372-8.496,26.541-23.868,25.348-38.291c-0.003-0.054-0.006-0.108-0.011-0.162
				l-18.012-190.47C974.276,346.081,973.689,345.146,972.792,344.602z M953.597,387.715l0.576,6.089
				c0.127,1.338-0.645,2.601-1.897,3.104l-90.394,36.333c-1.892,0.76-3.983-0.508-4.174-2.53l-0.601-6.354
				c-0.127-1.341,0.648-2.607,1.904-3.107l90.419-36.068C951.321,384.427,953.406,385.695,953.597,387.715z"/>
			<path style="opacity:0.06;fill:#161216;" d="M803.086,617.78c3.647,2.338,7.983,3.962,12.862,4.749
				c3.587,0.578,7.315,0.68,11.085,0.324c6.484-0.613,13.091-2.581,19.322-5.815c16.164-8.389,26.33-23.575,25.377-37.861
				c0-0.107-0.005-0.215-0.015-0.323l-3.09-32.677C851.462,592.422,822.169,610.646,803.086,617.78z"/>
			<path style="opacity:0.06;fill:#161216;" d="M967.05,576.046c16.372-8.496,26.541-23.868,25.348-38.291
				c-0.003-0.054-0.006-0.108-0.011-0.162l-2.457-25.986c-18.965,43.68-49.101,59.299-66.693,64.831
				c3.755,2.53,8.284,4.274,13.406,5.099C946.4,583.111,957.198,581.16,967.05,576.046z"/>
		</g>
		<path style="fill:#3B455A;" d="M847.811,229.004c0.165,0.748,0.396,1.468,0.811,2.111c1.842,2.85,5.985,2.618,9.364,2.311
			c5.065-0.46,10.184-0.33,15.219,0.386c1.976,0.281,3.961,0.653,5.952,0.517c4.43-0.303,14.208-12.86,16.493-7.956
			c0.486,1.046,0.161,2.271-0.17,3.376c-1.107,3.692-2.307,7.543-5.023,10.278c-2.976,2.996-7.278,4.163-11.369,5.213
			c-2.698,0.692-5.437,1.389-8.222,1.336c-2.484-0.048-4.913-0.691-7.314-1.331c-9.173-2.444-20.354-6.469-22.193-17.517
			c-0.335-2.013,0.35-4.667,2.375-4.92c1.738-0.217,3.078,1.574,3.516,3.271C847.497,227.032,847.599,228.042,847.811,229.004z"/>
		<g id="XMLID_76_">
			<g id="XMLID_78_">
				<g>
					<polygon style="fill:#7B4F34;" points="909.451,393.814 907.722,403.201 900.747,407.963 900.979,409.94 903.424,409.712 
						898.736,415.307 898.656,421.188 904.947,425.719 913.013,425.358 916.946,418.546 916.987,409.253 919.907,396.498 					"/>
				</g>
			</g>
			<g id="XMLID_77_">
				<g>
					<path style="fill:#305399;" d="M903.443,395.199c-0.224-0.138-0.446-0.278-0.666-0.421
						c3.466-13.539,18.906-37.016,16.044-50.086c-1.512-6.906-10.738-16.253-14.67-22.254c-5.589-8.529-11.178-17.057-16.767-25.586
						c-1.57-2.395-3.17-4.861-3.775-7.66c-0.777-3.588,0.171-7.334,1.555-10.734c2.366-5.813,6.221-11.254,11.743-14.235
						c8.473-4.574,25.036-3.792,32.638,2.079c5.272,4.071,8.912,9.85,12.344,15.559c4.677,7.781,9.175,15.67,13.491,23.657
						c4.599,8.513,9.095,17.536,9.226,27.211c0.087,6.474-1.798,12.793-3.666,18.993c-4.364,14.485-23.928,58.071-45.303,49.297
						C911.485,399.36,907.229,397.539,903.443,395.199z"/>
				</g>
			</g>
		</g>
		<path style="fill:#305399;" d="M911.808,206.069c-0.53-3.642-2.037-7.295-4.788-9.615c-0.292-0.247-0.575-0.461-0.856-0.673
			c0.467-9.233-2.407-18.481-7.914-25.908c-8.349-11.262-22.341-18.118-37.519-15.537c-18.051,3.07-25.046,23.431-25.189,40.397
			c-0.935,0.532-1.728,1.296-2.391,2.234c-3.001,4.248-3.446,11.878-3.473,15.803c-0.021,3.051,0.194,6.226,1.678,8.892
			c1.858,3.336,8.12,6.654,11.146,2.499c1.441-1.979,0.649-6.398,0.547-8.787c-0.137-3.175-0.42-6.341-0.578-9.515
			c-0.039-0.779,0.013-1.7,0.082-2.678c0.463-0.696,0.721-1.56,0.598-2.578c-1.196-9.94,0.256-21.773,6.484-29.826
			c5.934-7.674,9.429-9.495,16.254-9.587c17.921-0.24,33.861,13.231,33.561,31.678c-0.004,0.233,0.003,0.596,0.022,1.039
			c-5.626,1.923-6.986,14.359-6.214,20.493c0.389,3.092,1.256,6.241,3.181,8.647c1.925,2.406,5.088,3.902,7.898,3.058
			c2.78-0.835,4.562-3.639,5.691-6.442C911.734,215.425,912.48,210.684,911.808,206.069z"/>
	</g>
	<g>
		<path style="fill:#587BC9;" d="M215.649,244.096c-0.315,0.107-0.629,0.219-0.94,0.337c-5.203,1.974-9.628,5.527-13.957,9.024
			c-6.502,5.252-9.704,7.555-12.215,15.333c-2.342,7.254-3.808,14.915-5.243,22.39c-7.363,38.378-8.785,76.595-14.07,115.262
			c-1.439,10.525-2.549,22.898,5.235,30.128c13.811-10.749,31.172-11.369,47.923-11.384c11.763-0.011,23.264-3.821,35.056-2.508
			c11.269,1.255,21.112-1.562,32.548-0.817c2.757,0.18,6.271,0.149,7.357-2.391c-3.957-11.863-3.889-24.621-4.785-37.095
			c-2.317-32.266-13.006-63.228-17.32-95.275c-1.466-10.893-2.249-28.974-10.685-37.219c-9.167-8.96-30.078-9.143-41.86-7.39
			C220.308,242.842,217.931,243.324,215.649,244.096z"/>
		<g>
			<path style="fill:#EAC5B0;" d="M180.022,398.217c1.693-8.043-3.455-11.952-8.171-18.809c-2.627-3.819-3.674-14.98-9.979-14.111
				c-1.22,0.168-2.469,0.345-3.553,0.928c-0.887,0.476-1.615,1.197-2.294,1.94c-0.529,0.578-1.508,1.37-1.477,2.134
				c0.033,0.802,1.367,2.321,1.788,3.036c5.453,9.265,7.785,20.252,5.235,31.091c-0.296,1.258-0.625,2.603-0.167,3.812
				c0.564,1.489,2.174,2.323,3.735,2.641c5.288,1.078,10.765-2.529,13.053-7.418C179.099,401.519,179.691,399.789,180.022,398.217z"
				/>
			<path style="fill:#587BC9;" d="M132.536,325.006c7.315,20.134,20.71,55.077,24.896,53.881c6.616-1.899,12.85-5.122,18.224-9.424
				c-5.274-14.132-12.309-28.882-12.783-44.219c-0.57-18.436,22.86-17.899,37.362-23.918c4.452-1.848,8.999-3.93,12.171-7.56
				c3.704-4.24,5.042-10.048,5.526-15.657c0.647-7.492,1.694-23.426-6.441-27.477c-12.495-6.222-31.626,12.387-40.916,18.823
				c-15.22,10.544-29.217,22.854-41.604,36.617c-0.739,0.822-1.506,1.715-1.666,2.809c-0.129,0.877,0.154,1.757,0.437,2.598
				C128.146,312.685,129.965,317.931,132.536,325.006z"/>
		</g>
		<g>
			<g>
				<g>
					<g>
						<path style="fill:#EAC5B0;" d="M224.397,243.554c0.194,0.377,0.453,0.738,0.8,1.08c1.369,1.35,3.266,2.116,5.149,2.386
							c2.482,0.355,5.004-0.057,7.466-0.527c3.327-0.635,3.209-2.582,3.691-5.602c0.263-1.65,0.428-3.313,0.553-4.979
							c0.068-0.913-0.286-4.182,0.297-4.822c0.395-0.434,2.003-0.288,2.708-0.656c1.117-0.583,2.05-1.657,2.721-2.7
							c1.082-1.683,1.677-3.624,2.26-5.537c1.014-3.329,2.028-6.658,3.043-9.987c1.036-3.401,2.078-6.831,2.411-10.371
							c0.502-5.336-0.361-12.868-4.388-16.77c-3.674-3.559-9.034-4.805-13.95-5.433c-6.509-0.832-13.256,0.36-18.878,3.815
							c-2.27,1.395-4.422,3.204-5.763,5.692c-2.067,3.835-1.91,8.623-1.687,13.099c0.205,4.132,0.41,8.264,0.615,12.395
							c0.236,4.752,0.828,10.229,4.388,12.806c1.891,1.368,4.362,1.661,5.981,3.415c2.027,2.198,1.896,5.495,1.98,8.282
							C223.842,240.732,223.722,242.24,224.397,243.554z"/>
					</g>
					<path style="fill:#3B455A;" d="M245.002,190.141c0.224,0.388,0.412,0.79,0.556,1.208c0.759,2.191,0.246,4.663,0.987,6.86
						c1.175,3.483,5.239,5.576,5.851,9.2c0.501,2.964-1.524,5.781-1.695,8.782c-0.187,3.278,1.913,6.382,1.587,9.618
						c-0.283,2.811-2.066,6.762-3.744,9.014c0.52-0.698,5.226-0.449,6.446-1.195c1.87-1.142,2.084-1.862,2.64-3.811
						c0.553-1.935,0.124-3.842,0.986-5.825c1.056-2.432,3.227-4.217,3.987-6.811c1.037-3.539-0.846-7.273-0.699-10.958
						c0.223-5.578,5.043-10.833,3.294-16.134c-1.026-3.11-4.046-5.098-5.745-7.898c-1.29-2.126-1.766-4.633-2.66-6.953
						c-0.894-2.32-2.432-4.642-4.817-5.346c-1.325-0.391-2.75-0.231-4.109-0.483c-2.348-0.437-4.299-2.057-6.561-2.822
						c-3.236-1.095-8.945,2.178-10.834,4.92c-1.875,2.722-0.929,5.037,0.988,7.444C234.653,182.959,242.367,185.583,245.002,190.141
						z"/>
				</g>
				<path style="fill:#3B455A;" d="M201.42,173.665c-1.939,1.423-4.334,2.451-6.105,4.113c-3.453,3.242-4.109,8.426-4.234,13.16
					c-0.111,4.215-1.955,7.961-1.499,12.355c0.307,2.951,1.561,5.935,3.962,7.677c2.99,2.17,7.685,2.525,9.019,5.971
					c1.449,3.742-2.427,8.455-0.074,11.706c1.298,1.794,3.843,2.056,5.7,3.262c2.072,1.344,3.137,3.746,4.402,5.867
					c1.266,2.121,3.166,4.246,5.636,4.299c0.1-3.756,0.211-6.732-1.393-10.168c-0.935-2.001-3.687-5.693-1.573-7.86
					c1.333-1.801,4.48-2.387,4.561-4.626c0.038-1.052-0.696-1.947-1.275-2.826c-2.241-3.401-2.469-7.932-0.95-11.711
					c1.52-3.779,4.65-6.797,8.316-8.573c4.296-2.08,3.604-3.13,4.852-7.243c1.149-3.785,3.297-4.673,6.704-6.052
					c3.059-1.239,4.043-2.01,5.172-4.874c0.826-2.095,1.843-4.605,0.645-6.943c-0.952-1.858-2.667-3.187-4.327-4.453
					c-3.469-2.645-7.367-5.426-11.717-5.112c-2.416,0.174-4.689,1.309-7.108,1.447c-1.613,0.091-3.217-0.266-4.833-0.32
					c-2.753-0.092-5.657,0.745-7.886,2.384c-2.249,1.654-2.185,3.384-3.435,5.73C203.369,172.025,202.46,172.902,201.42,173.665z"/>
				<path style="fill:#3B455A;" d="M211.162,158.222c0.423-2.617,0.151-6.027-2.348-6.911c-1.369-0.484-2.904,0.046-4.327-0.243
					c-3.033-0.617-4.066-4.29-5.657-6.945c-0.238-0.397-0.521-0.8-0.945-0.989c-0.605-0.27-1.299-0.03-1.957,0.05
					c-3.018,0.368-5.312-2.611-8.155-3.69c-3.518-1.337-7.946,0.863-9.005,4.475c-0.436,1.484-0.36,3.079-0.768,4.57
					c-1.656,6.043-10.506,8.614-10.73,14.876c-0.151,4.231,3.99,8.286,2.38,12.202c-1.029,2.504-4.251,4.212-3.883,6.894
					c0.237,1.726,2.075,2.901,3.817,2.876s3.342-0.98,4.654-2.126c2.083-1.819,3.652-4.152,5.636-6.078
					c1.984-1.926,4.63-3.488,7.373-3.145c2.657,0.332,5.062,2.401,7.703,1.958c2.113-0.354,3.68-2.238,5.755-2.77
					c1.941-0.497,3.96,0.266,5.96,0.386s4.457-0.92,4.51-2.924c0.013-0.485-0.123-0.987,0.03-1.448
					c0.427-1.292,2.633-1.217,3.052-2.512c-1.044-1.61-2.517-1.033-3.265-3.135C210.412,161.965,210.896,159.865,211.162,158.222z"
					/>
			</g>
		</g>
		<g>
			<path style="fill:#EAC5B0;" d="M321.695,187.194c-0.511,0.011-1.021,0.03-1.531,0.056c-0.306,0.016-0.621,0.036-0.897,0.169
				c-0.27,0.13-0.479,0.357-0.678,0.581c-2.248,2.538-3.704,5.349-5.197,8.354c-0.556,1.119-0.664,1.194-0.125,2.382
				c0.599,1.319,1.352,2.6,2.064,3.861c0.349,1.942,0.777,3.872,0.96,5.837c0.462,4.976-3.847,15.973,1.94,18.53
				c1.12,0.495,2.269,0.996,3.466,1.032c0.979,0.029,1.937-0.257,2.863-0.588c0.722-0.258,1.926-0.476,2.256-1.206
				c0.346-0.767-0.085-2.901-0.111-3.789c-0.073-2.536-0.147-5.072-0.221-7.608c-0.072-2.487,0.053-5.42,1.923-6.758
				c0.409-0.293,0.88-0.484,1.248-0.836c0.416-0.397,0.664-0.963,0.888-1.52c0.818-2.041,1.507-4.209,1.871-6.419
				c0.333-2.017-0.809-3.057-1.815-4.631c-1.051-1.643-1.071-3.669-1.961-5.374c-0.895-1.715-2.489-2.019-4.351-2.068
				C323.423,187.177,322.559,187.175,321.695,187.194z"/>
			<path style="fill:#587BC9;" d="M326.137,281.501c0.833-5.271,1.601-10.654,2.729-16.115c3.16-15.297,4.142-31.188,2.899-46.913
				c-6.534-1.761-13.358-2.078-19.952-0.927c0.081-0.014-8.125,36.578-9.9,40.256c-4.582,9.494-4.206,8.372-12.556,4.349
				c-7.318-3.526-14.054-8.905-21.253-12.791c-6.957-3.756-14.626-7.299-22.461-6.238c-0.723,9.042-1.105,18.112-1.147,27.183
				c-0.015,3.25,0.029,6.586,1.211,9.613c1.141,2.924,3.258,5.343,5.335,7.697c12.912,14.635,26.347,29.668,44.033,37.921
				c0.879,0.41,1.792,0.809,2.761,0.863c1.513,0.085,2.931-0.674,4.256-1.409C318.703,315.767,323.272,299.508,326.137,281.501z"/>
		</g>
		<g>
			<g>
				<path style="fill:#3B455A;" d="M426.326,221.437l-29.924,27.643c-8.334,7.699-22.453,6.193-31.874-3.454L236.816,114.841
					c-4.508-4.617-5.087-11.338-1.268-14.866l56.098-51.822c3.819-3.528,10.443-2.391,14.653,2.502l119.243,138.61
					C434.336,199.488,434.659,213.738,426.326,221.437z"/>
				<g>
					<polygon style="fill:#E6E6E6;" points="284.424,121.286 272.483,132.242 267.934,127.246 279.875,116.289 					"/>
					<polygon style="fill:#E6E6E6;" points="302.328,104.86 290.386,115.816 285.837,110.82 297.779,99.864 					"/>
					<polygon style="fill:#E6E6E6;" points="320.231,88.435 308.289,99.391 303.74,94.394 315.682,83.438 					"/>
				</g>
				<g>
					<polygon style="fill:#E6E6E6;" points="297.295,135.423 285.353,146.379 280.804,141.382 292.746,130.426 					"/>
					<polygon style="fill:#E6E6E6;" points="315.199,118.997 303.257,129.953 298.708,124.957 310.65,114.001 					"/>
					<polygon style="fill:#E6E6E6;" points="333.102,102.572 321.16,113.528 316.611,108.531 328.553,97.575 					"/>
				</g>
				<g>
					<polygon style="fill:#E6E6E6;" points="310.166,149.559 298.224,160.515 293.675,155.519 305.617,144.563 					"/>
					<polygon style="fill:#E6E6E6;" points="328.07,133.134 316.128,144.09 311.579,139.093 323.521,128.137 					"/>
					<polygon style="fill:#E6E6E6;" points="345.973,116.708 334.031,127.664 329.482,122.668 341.424,111.712 					"/>
				</g>
				<g>
					<g>
						<path style="fill:#E6E6E6;" d="M374.208,173.087l7.334-1.045c-0.772-5.336-3.174-10.308-6.873-14.227
							c-3.698-3.919-8.514-6.594-13.78-7.656l-1.298,6.602C367.225,158.456,373.298,164.859,374.208,173.087z"/>
						<path style="fill:#E6E6E6;" d="M358.639,193.621l1.212,7.836c5.304-0.809,10.223-3.252,14.076-6.99
							c3.853-3.738,6.454-8.591,7.442-13.885l-7.483-1.432C372.291,186.506,366.36,192.381,358.639,193.621z"/>
						<path style="fill:#E6E6E6;" d="M337.381,179.208l-6.991,1.326c1.014,5.296,3.639,10.153,7.512,13.899
							c3.872,3.746,8.804,6.198,14.112,7.017l1.161-7.755C345.512,192.661,339.126,186.933,337.381,179.208z"/>
						<path style="fill:#E6E6E6;" d="M352.237,156.624l-1.243-6.528c-5.272,0.994-10.103,3.608-13.824,7.479
							c-3.721,3.871-6.152,8.812-6.955,14.138l6.838,1.064C338.016,164.74,344.091,158.091,352.237,156.624z"/>
					</g>
					<path style="fill:#E6E6E6;" d="M356.35,164.489c6.168,0.289,10.952,5.544,10.685,11.736
						c-0.267,6.192-5.483,10.978-11.65,10.689c-6.168-0.289-10.952-5.543-10.685-11.736
						C344.966,168.985,350.182,164.2,356.35,164.489z"/>
				</g>
				<polygon style="fill:#7DB5DB;" points="373.272,220.103 363.203,229.34 361.06,226.987 371.128,217.749 				"/>
				<polygon style="fill:#7DB5DB;" points="391.073,203.025 381.005,212.262 378.862,209.908 388.93,200.671 				"/>
				<polygon style="fill:#7DB5DB;" points="408.875,185.946 398.807,195.183 396.664,192.829 406.732,183.592 				"/>
			</g>
			<path style="fill:#7DB5DB;" d="M302.566,66.032c2.384,2.619,2.209,6.675-0.39,9.06c-2.599,2.385-6.639,2.195-9.024-0.423
				c-2.384-2.619-2.21-6.675,0.39-9.06C296.142,63.224,300.182,63.414,302.566,66.032z"/>
		</g>
	</g>
	<g>
		<g>
			<path style="fill:#D7E8F4;" d="M348.617,460.363c38.728-5.167,39.035,45.917,42.766,72.416c1.28,9.093,3.493,18.83,3.438,28.014
				c-0.044,7.369-1.962,14.533-1.373,22.044c0.453,5.771,3.002,12,8.495,14.359c2.764,1.187,5.939,1.243,8.709,2.418
				s5.141,4.313,3.747,6.897c-0.663,1.229-1.989,1.969-3.246,2.644c-6.85,3.675-13.701,7.35-20.551,11.025
				c-5.232,2.807-10.494,5.626-16.132,7.575c-7.988,2.76-16.53,3.7-25.006,4.115c-21.895,1.07-43.965-1.259-65.099-6.87
				c-7.911-2.1-20.895-7.576-21.935-17.334c-0.347-3.263,0.691-6.494,1.715-9.597c8.445-25.597,16.89-51.193,25.335-76.79
				c7.09-21.491,10.451-52.514,35.557-60.492C333.017,458.253,340.033,461.507,348.617,460.363z"/>
			<g>
				<path style="fill:#3B455A;" d="M352.738,686.869c6.836,2.877,13.827,5.388,20.931,7.517c3.76,1.127,7.626,2.156,11.547,1.991
					c9.18-0.387,15.782-10.637,7.257-17.275c-3.733-2.907-7.921-5.231-12.36-6.868c-6.547-2.415-2.714,2.737-4.699,7.117
					c-2.286,5.042-4.083,4.931-8.808,2.818c-6.088-2.722-10.063-5.958-17.048-5.532c-1.929,0.118-4.165,0.674-4.911,2.457
					c-0.566,1.352-0.001,2.967,1.005,4.033c1.006,1.066,2.377,1.698,3.718,2.291C350.489,685.911,351.612,686.394,352.738,686.869z"
					/>
				<path style="fill:#EACDB0;" d="M369.862,683.639c1.973,0.106,3.947,0.211,5.92,0.317c2.144,0.115,4.536,0.147,6.132-1.288
					c1.949-1.752,1.729-5.062,0.152-7.155c-1.577-2.094-4.119-3.209-6.615-4.009c-6.025-1.931-12.394-2.526-18.716-2.774
					c-0.633-0.025-1.289-0.043-1.876,0.194c-1.024,0.412-1.607,1.493-1.953,2.542C349.321,682.357,362.194,683.229,369.862,683.639z
					"/>
				<path style="fill:#3B455A;" d="M407.387,641.939c-1.439-12.44-7.673-22.315-19.193-27.723
					c-9.343-4.386-19.845-5.417-30.081-6.731c-22.799-2.926-44.563-5.85-67.583-4.945c-18.408,0.723-29.754,16.429-38.37,31.919
					c-5.43,9.762-3.922,14.341,2.914,22.517c6.302,7.538,13.952,13.952,22.496,18.807c16.918,9.614,42.908,7.238,61.539,5.161
					c17.586-1.96,34.799-7.213,50.484-15.404C399.688,660.269,408.787,654.052,407.387,641.939z"/>
				<g>
					<path style="fill:#EACDB0;" d="M293.921,702.18c-0.107,0.878-0.207,1.812,0.172,2.612c0.275,0.582,0.777,1.027,1.319,1.373
						c4.07,2.594,9.543-0.2,12.659-3.886c3.115-3.686,5.225-8.349,9.199-11.087c9.097-6.267,0.77-17.74-8.738-15.109
						C297.434,679.154,295.105,692.487,293.921,702.18z"/>
					<g>
						<path style="fill:#3B455A;" d="M416.508,643.101c7.856-5.773,15.733-12.315,18.603-22.038
							c2.87-9.723-1.18-23.453-11.315-29.06c-12.357-6.835-24.495,1.564-33.307,9.495c-18.049,16.225-37.721,30.57-56.953,45.41
							c-6.5,5.016-29.049,23.483-29.049,23.483c-0.62,2.602,11.5,26.151,14.713,25.289
							C354.283,686.403,388.407,663.75,416.508,643.101z"/>
						<path style="fill:#3B455A;" d="M239.93,654.285c-7.692-3.744-15.428-8.254-18.47-17.247c-3.042-8.992,0.416-23.79,9.944-32.03
							c11.616-10.047,23.487-4.781,32.16,0.877c17.764,11.569,37.023,20.835,55.876,30.712c6.372,3.338,28.51,15.986,28.51,15.986
							c0.672,2.445-10.209,29.165-13.31,29.135C300.788,681.52,267.447,667.68,239.93,654.285z"/>
					</g>
				</g>
				<path style="fill:#3B455A;" d="M292.745,679.359c-2.912,6.822-5.458,13.799-7.623,20.893c-1.146,3.754-2.195,7.615-2.05,11.537
					c0.34,9.182,10.557,15.836,17.238,7.345c2.926-3.719,5.271-7.894,6.931-12.325c2.449-6.535-2.724-2.728-7.093-4.735
					c-5.031-2.311-4.91-4.108-2.773-8.823c2.753-6.074,6.009-10.032,5.618-17.02c-0.108-1.93-0.652-4.169-2.432-4.924
					c-1.349-0.573-2.967-0.016-4.038,0.985c-1.071,1.001-1.71,2.368-2.309,3.706C293.715,677.115,293.225,678.235,292.745,679.359z"
					/>
			</g>
			<g>
				<g>
					<path style="fill:#3B455A;" d="M317.001,430.667c3.057,5.566,6.858,10.723,11.271,15.289
						c-2.174-10.93-2.837-22.159-1.965-33.269c0.067-0.847,0.109-1.801-0.459-2.434c-0.53-0.591-1.408-0.688-2.202-0.715
						C309.475,409.063,311.673,420.964,317.001,430.667z"/>
				</g>
				<g>
					<path style="fill:#EAC5B0;" d="M342.568,388.026c-34.073-3.453-24.314,40.789-14.628,58.218
						c1.837,3.305,4.339,6.834,7.86,9.063c0.585,0.371-1.389,7.635-1.594,8.514c-0.584,2.5-2.268,5.343,0.465,7.176
						c1.134,0.76,2.54,0.985,3.902,1.081c1.746,0.123,3.504,0.067,5.238-0.168c1.828-0.248,3.674-0.715,5.19-1.766
						c4.342-3.013,2.363-10.67,2.249-15.175c1.059-0.679,2.028-1.443,2.884-2.236C365.964,441.766,380.093,391.829,342.568,388.026z
						"/>
				</g>
				<g>
					<g>
						<path style="fill:#3B455A;" d="M355.824,440.694c2.747,2.681,7.389,0.984,10.456-1.324
							c12.598-9.48,17.716-27.732,11.885-42.38c-4.879-12.257-22.647-18.891-23.033-2.54c-0.137,5.798,4.671,12.925,5.016,19.267
							C360.641,422.78,358.046,432.003,355.824,440.694z"/>
					</g>
					<g>
						<path style="fill:#3B455A;" d="M307.096,378.412c-14.215,12.187-17.356,33.211-29.763,47.234
							c14.434,3.326,30.183,0.481,42.542-7.684c12.121-8.008,42.787-17.673,34.914-35.133
							C346.775,365.058,319.552,367.734,307.096,378.412z"/>
					</g>
				</g>
			</g>
		</g>
		<g>
			<g>
				<path style="fill:#305399;" d="M385.404,636.375c16.912-16.327,18.246-43.226,2.641-61.168
					c-10.362-11.914-25.671-16.977-40.208-14.794l-31.372-36.069c4.176-14.094,1.284-29.957-9.078-41.87
					c-15.606-17.942-42.43-20.349-60.943-5.863l-0.034-0.066l-59.367,51.636l0.044,0.077c-9.291,9.424-9.894,24.564-1.064,34.715
					c6.985,8.03,17.878,10.646,27.383,7.482l32.747-9.074l55.259,63.532l-13.526,31.173c-4.451,8.975-3.371,20.125,3.614,28.156
					c8.83,10.152,23.907,11.653,34.528,3.758l0.07,0.054l59.367-51.636L385.404,636.375z"/>
				<path style="opacity:0.08;" d="M385.313,636.406c0,0-71.006,58.391-99.506,25.63c-1.646,7.612,0.189,15.877,5.693,22.205
					c8.83,10.152,23.907,11.653,34.528,3.758l0.07,0.054l59.351-51.623L385.313,636.406z"/>
				<path style="fill:#273D54;" d="M287.974,532.816l-7.796-8.964c-0.897-1.031-0.788-2.595,0.243-3.492l8.964-7.796
					c1.031-0.897,1.14-2.46,0.243-3.492l-7.797-8.964c-0.897-1.031-2.46-1.14-3.492-0.243l-8.964,7.796
					c-1.031,0.897-2.595,0.788-3.492-0.243l-7.634-8.777c-0.897-1.031-2.46-1.14-3.492-0.243l-8.964,7.796
					c-1.031,0.897-1.14,2.46-0.243,3.492l7.634,8.777c0.897,1.031,0.788,2.595-0.243,3.492l-8.777,7.634
					c-1.031,0.897-1.14,2.46-0.243,3.492l7.796,8.964c0.897,1.031,2.46,1.14,3.492,0.243l8.777-7.634
					c1.031-0.897,2.595-0.788,3.492,0.243l7.796,8.964c0.897,1.031,2.46,1.14,3.492,0.243l8.964-7.796
					C288.762,535.411,288.871,533.847,287.974,532.816z"/>
				<g>
					<path style="fill:#273D54;" d="M366.228,609.714c-3.439,2.991-8.651,2.628-11.641-0.811c-2.991-3.439-2.628-8.651,0.811-11.641
						c3.439-2.991,8.651-2.628,11.641,0.811C370.029,601.511,369.666,606.723,366.228,609.714z"/>
					<path style="fill:#273D54;" d="M342.676,608.327c-3.439,2.991-8.651,2.628-11.641-0.811c-2.991-3.438-2.628-8.651,0.811-11.641
						c3.439-2.991,8.651-2.628,11.641,0.811C346.477,600.124,346.114,605.336,342.676,608.327z"/>
					<path style="fill:#273D54;" d="M363.873,632.698c-3.438,2.991-8.65,2.628-11.641-0.811c-2.991-3.438-2.628-8.65,0.811-11.641
						c3.439-2.991,8.65-2.628,11.641,0.811C367.675,624.496,367.312,629.708,363.873,632.698z"/>
					<path style="fill:#273D54;" d="M341.144,631.531c-3.438,2.991-8.65,2.628-11.641-0.811c-2.991-3.439-2.628-8.651,0.811-11.641
						c3.438-2.991,8.65-2.628,11.641,0.811C344.946,623.328,344.583,628.54,341.144,631.531z"/>
				</g>
				<path style="fill:#EAC5B0;" d="M288.217,529.33l-7.796-8.964c-0.897-1.031-0.788-2.595,0.243-3.492l8.964-7.796
					c1.031-0.897,1.14-2.46,0.243-3.492l-7.796-8.964c-0.897-1.031-2.46-1.14-3.492-0.243l-8.964,7.796
					c-1.031,0.897-2.595,0.788-3.492-0.243l-7.634-8.777c-0.897-1.031-2.46-1.14-3.492-0.243l-8.964,7.797
					c-1.031,0.897-1.14,2.46-0.243,3.492l7.634,8.777c0.897,1.031,0.788,2.595-0.243,3.492l-8.777,7.634
					c-1.031,0.897-1.14,2.46-0.243,3.492l7.796,8.964c0.897,1.031,2.46,1.14,3.492,0.243l8.777-7.634
					c1.031-0.897,2.595-0.788,3.492,0.243l7.796,8.964c0.897,1.031,2.46,1.14,3.492,0.243l8.964-7.796
					C289.005,531.924,289.114,530.361,288.217,529.33z"/>
				<g>
					<path style="fill:#EAC5B0;" d="M366.47,606.228c-3.439,2.991-8.651,2.628-11.641-0.811c-2.991-3.438-2.628-8.651,0.811-11.641
						c3.439-2.991,8.651-2.628,11.641,0.811C370.272,598.025,369.909,603.237,366.47,606.228z"/>
					<path style="fill:#EAC5B0;" d="M342.918,604.841c-3.439,2.991-8.65,2.628-11.641-0.811c-2.991-3.439-2.628-8.651,0.811-11.641
						c3.439-2.991,8.651-2.628,11.641,0.811C346.72,596.638,346.357,601.85,342.918,604.841z"/>
					<path style="fill:#EAC5B0;" d="M364.116,629.212c-3.438,2.991-8.65,2.628-11.641-0.811c-2.991-3.438-2.628-8.651,0.811-11.641
						c3.439-2.991,8.65-2.628,11.641,0.811C367.918,621.009,367.555,626.221,364.116,629.212z"/>
					<path style="fill:#EAC5B0;" d="M341.387,628.045c-3.438,2.991-8.65,2.628-11.641-0.811c-2.991-3.439-2.628-8.65,0.811-11.641
						c3.438-2.991,8.65-2.628,11.641,0.811C345.189,619.842,344.826,625.054,341.387,628.045z"/>
				</g>
				<path style="opacity:0.08;" d="M302.429,494.618c4.563,5.246,7.603,11.296,9.161,17.612c0.51-9.265-2.443-18.729-9.013-26.283
					c-13.396-15.402-36.742-17.028-52.144-3.632c-2.364,2.056-4.4,4.347-6.11,6.807
					C261.945,475.243,287.547,477.508,302.429,494.618z"/>
				<path style="opacity:0.08;" d="M180.327,540.763L180.327,540.763c-1.647,7.613,0.19,15.88,5.695,22.209
					c6.985,8.03,17.878,10.646,27.383,7.482l31.768-8.803C245.171,561.652,206.997,571.425,180.327,540.763z"/>
				<polygon style="opacity:0.08;" points="306.509,613.291 282.566,585.635 258.624,557.978 246.09,561.404 273.828,593.199 
					301.325,625.205 				"/>
			</g>
			<g>
				<path style="fill:#EAC5B0;" d="M335.181,586.305c-0.151,0.08-0.304,0.151-0.458,0.212c-5.199,2.081-10.863,2.967-16.447,2.508
					c-0.274-0.022-0.556-0.051-0.797-0.184c-0.265-0.146-0.449-0.403-0.624-0.651c-1.625-2.309-3.294-4.723-3.755-7.509
					c-0.136-0.824-0.091-1.82,0.599-2.291c0.471-0.322,1.091-0.286,1.66-0.237c0.889,0.076,3.22,0.711,3.967,0.168
					c0.801-0.582,0.176-1.68-0.087-2.389c1.098-0.679,2.203-1.363,3.303-2.044c0.633-0.392,2.332-1.927,3.09-1.912
					c0.006,0,11.718,0.23,11.718,0.23l3.771,7.924C339.416,581.999,337.453,585.11,335.181,586.305z"/>
				<path style="fill:#D7E8F4;" d="M399.191,528.314c1.582,7.536,2.92,15.137,4.243,22.693c0.311,1.777,0.623,3.596,0.32,5.375
					c-0.885,5.213-6.412,8.074-11.279,10.141c-7.712,3.275-15.425,6.55-23.137,9.826c-7.702,3.271-16.14,8.397-24.271,10.297
					c-4.716,1.102-4.805-0.846-8.12-4.954c-1.613-2-3.722-6.06-5.951-7.378c2.97,1.269,11.486-6.413,13.691-8.128
					c6.966-5.419,14.266-10.65,20.845-16.641c1.587-1.445,3.233-3.084,3.566-5.204c0.242-1.538-0.253-3.085-0.742-4.563
					c-5.784-17.495-11.568-34.99-17.352-52.485c-1.464-4.427-2.932-9.239-1.436-13.656c2.464-7.273,12.291-9.784,19.357-6.777
					c7.065,3.007,11.739,9.792,15.313,16.588C391.612,497.47,395.923,512.752,399.191,528.314z"/>
			</g>
			<g>
				<path style="fill:#EAC5B0;" d="M279.016,581.634c0.141,0.031,0.281,0.054,0.42,0.07c4.688,0.525,9.486-0.025,13.917-1.649
					c0.217-0.08,0.44-0.166,0.606-0.328c0.183-0.178,0.274-0.428,0.361-0.668c0.802-2.239,1.617-4.573,1.366-6.938
					c-0.074-0.7-0.334-1.498-1-1.726c-0.455-0.156-0.95,0.013-1.401,0.18c-0.705,0.261-2.455,1.298-3.184,1.025
					c-0.781-0.293-0.52-1.325-0.465-1.959c-1.044-0.305-2.094-0.613-3.14-0.919c-0.602-0.176-2.325-1.042-2.938-0.86
					c-0.005,0.001-9.464,2.812-9.464,2.812l-1.286,7.28C274.612,579.086,276.903,581.172,279.016,581.634z"/>
				<path style="fill:#D7E8F4;" d="M245.938,567.048c-0.214,0.785-0.348,1.597-0.443,2.405c-0.423,3.608-0.005,7.541,2.296,10.353
					c1.048,1.281,2.429,2.255,3.882,3.049c5.619,3.067,11.877,3.017,17.967,1.751c3.427-0.712,1.956,1.114,4.707-1.926
					c1.755-1.939,3.455-6.162,3.67-8.762c0.299-3.61,0.742-1.407-1.901-3.808c-2.535-2.303-6.66-4.2-9.611-6.04
					c-3.141-1.958-6.61-3.613-10.307-3.78c-3.697-0.167-7.655,1.437-9.439,4.679C246.397,565.626,246.134,566.326,245.938,567.048z"
					/>
			</g>
		</g>
	</g>
</g>
</svg>
