<?xml version="1.0" encoding="utf-8"?>
<!-- Generator: Adobe Illustrator 27.5.0, SVG Export Plug-In . SVG Version: 6.00 Build 0)  -->
<svg version="1.1" xmlns="http://www.w3.org/2000/svg" xmlns:xlink="http://www.w3.org/1999/xlink" x="0px" y="0px"
	 viewBox="0 0 500 500" style="enable-background:new 0 0 500 500;" xml:space="preserve">
<g id="BACKGROUND">
	<rect style="fill:#FDF7F0;" width="500" height="500"/>
</g>
<g id="OBJECTS">
	<g>
		<path style="fill:#EDE4DD;" d="M220.044,143.371c-16.318-59.194-89.85-78.263-131.991-34.024c-0.605,0.635-1.21,1.281-1.814,1.938
			c-60.415,65.674-31.875,227.514,94.21,268.533c126.085,41.019,257.231-33.886,264.599-100.846
			c7.368-66.96-50.802-88-141.075-69.276C252.971,220.275,230.202,180.221,220.044,143.371z"/>
		<path style="fill:#EDE4DD;" d="M61.059,290.06c2.314-8.472,0.842-17.506-3.751-24.991c-4.478-7.298-11.304-14.919-18.844-10.934
			c-13.237,6.995,2.085,41.018,13.32,44.273C56.874,299.882,59.6,295.401,61.059,290.06z"/>
		<path style="fill:#EDE4DD;" d="M443.892,191.012c0.083-8.782-6.04-15.572-12.317-23.217c-5.433-6.618-12.266-11.643-18.565-5.895
			c-11.06,10.091,8.91,38.103,20.602,38.436C438.91,200.488,443.816,199.125,443.892,191.012z"/>
		<path style="fill:#EDE4DD;" d="M275.364,142.861c0.129-11.179-4.586-21.834-12.648-29.579c-7.86-7.551-18.716-14.746-26.723-7.416
			c-14.058,12.868,15.744,49.855,30.627,50.255C273.364,156.304,275.282,149.909,275.364,142.861z"/>
		<path style="fill:#EDE4DD;" d="M212.815,90.392c-2.124-5.938-6.708-10.648-12.491-13.163c-5.638-2.452-12.791-4.128-15.588,1.32
			c-4.911,9.563,18.105,23.28,26.056,20.572C214.394,97.894,214.155,94.135,212.815,90.392z"/>
	</g>
	<ellipse style="fill:#EDE4DD;" cx="242.703" cy="400.408" rx="205.526" ry="9.247"/>
	<g>
		<g>
			<g>
				<path style="fill:#F99900;" d="M89.088,178.255c-0.106,0.134-0.215,0.258-0.327,0.369c-3.215,3.186-8.789-9.012-3.638-21.219
					c5.15-12.207,0.907-28.333-6-28.961c-6.907-0.629-0.902,10.1-9.805,8.453c-8.903-1.646-10.275-25.363-21.764-24.055
					c-10.056,1.144-3.611,18.71,1.384,26.112c4.713,6.986,3.314,14.091-1.977,12.538c-5.29-1.551-10.578,5.793-2.702,17.198
					c7.876,11.405,18.543,22.757,13.41,24.066c-5.134,1.312-15.813-9.9-20.363,3.369c-2.034,5.93,10.888,26.454,39.566,28.078
					l12.217-13.232V178.255z"/>
				<g>
					<path style="fill:#ED7C00;" d="M85.727,210.97c-12.106-32.133-32.456-81.363-32.703-81.962c-0.157-0.377,0.022-0.812,0.4-0.968
						c0.379-0.157,0.812,0.024,0.968,0.403c0.249,0.603,20.822,50.371,32.918,82.528H85.727z"/>
				</g>
				<g>
					<g>
						<path style="fill:#ED7C00;" d="M67.684,163.908c-0.121-0.011-0.242-0.052-0.349-0.126c-0.338-0.231-0.426-0.692-0.195-1.03
							c0.064-0.093,6.397-9.435,8.276-16.172c0.11-0.395,0.52-0.625,0.913-0.515c0.394,0.11,0.625,0.519,0.515,0.913
							c-1.946,6.973-8.214,16.218-8.479,16.609C68.207,163.818,67.943,163.931,67.684,163.908z"/>
					</g>
				</g>
				<g>
					<path style="fill:#ED7C00;" d="M70.409,171.813c-0.015-0.001-0.03-0.003-0.044-0.005c-0.454-0.069-11.194-1.727-18.473-5.712
						c-0.359-0.196-0.491-0.647-0.294-1.006c0.197-0.359,0.647-0.491,1.006-0.294c7.045,3.857,17.874,5.53,17.983,5.547
						c0.405,0.061,0.683,0.439,0.622,0.844C71.149,171.575,70.796,171.848,70.409,171.813z"/>
				</g>
				<g>
					<g>
						<g>
							<path style="fill:#ED7C00;" d="M89.088,194.602c-3.124,3.752-6.465,6.642-6.522,6.69c-0.311,0.267-0.346,0.735-0.08,1.045
								c0.131,0.152,0.31,0.239,0.495,0.256c0.193,0.017,0.392-0.04,0.55-0.176c0.208-0.178,2.799-2.419,5.557-5.526V194.602z"/>
						</g>
					</g>
				</g>
				<g>
					<g>
						<g>
							<path style="fill:#ED7C00;" d="M73.742,208.975c-4.222-0.384-8.87-1.193-12.693-2.821c-0.377-0.16-0.552-0.595-0.392-0.972
								c0.16-0.377,0.596-0.552,0.972-0.392c9.124,3.883,23.73,2.9,23.876,2.89c0.407-0.029,0.763,0.279,0.792,0.687
								c0.029,0.409-0.278,0.763-0.687,0.792C85.246,209.186,79.956,209.541,73.742,208.975z"/>
						</g>
					</g>
				</g>
			</g>
		</g>
		<g>
			<g>
				<path style="fill:#F99900;" d="M409.158,338.993c0.106,0.134,0.215,0.258,0.327,0.369c3.215,3.186,8.788-9.012,3.638-21.219
					c-5.15-12.206-0.907-28.332,6-28.961c6.907-0.629,0.902,10.1,9.805,8.453c8.903-1.647,10.275-25.363,21.764-24.055
					c10.055,1.144,3.611,18.71-1.384,26.112c-4.713,6.986-3.314,14.091,1.977,12.538c5.29-1.551,10.578,5.793,2.702,17.198
					c-7.876,11.405-18.543,22.757-13.41,24.066c5.134,1.312,15.813-9.9,20.363,3.369c2.034,5.93-2.36,11.024-7.84,14.846h-43.944
					V338.993z"/>
				<g>
					<path style="fill:#ED7C00;" d="M412.519,371.709c12.106-32.132,32.456-81.363,32.704-81.962
						c0.157-0.377-0.022-0.812-0.401-0.968c-0.379-0.157-0.812,0.025-0.968,0.403c-0.249,0.603-20.822,50.371-32.918,82.527H412.519
						z"/>
				</g>
				<g>
					<g>
						<path style="fill:#ED7C00;" d="M430.562,324.646c0.121-0.011,0.242-0.052,0.349-0.126c0.338-0.231,0.426-0.692,0.195-1.03
							c-0.064-0.093-6.397-9.435-8.276-16.172c-0.11-0.395-0.52-0.625-0.913-0.515c-0.394,0.11-0.625,0.519-0.515,0.914
							c1.946,6.973,8.214,16.218,8.479,16.608C430.039,324.556,430.303,324.67,430.562,324.646z"/>
					</g>
				</g>
				<g>
					<path style="fill:#ED7C00;" d="M427.838,332.551c0.015-0.001,0.03-0.003,0.044-0.005c0.454-0.069,11.194-1.727,18.473-5.712
						c0.359-0.196,0.491-0.647,0.294-1.006c-0.197-0.359-0.647-0.491-1.006-0.294c-7.046,3.857-17.874,5.53-17.983,5.546
						c-0.405,0.061-0.683,0.439-0.622,0.844C427.098,332.314,427.45,332.586,427.838,332.551z"/>
				</g>
				<g>
					<g>
						<g>
							<path style="fill:#ED7C00;" d="M409.158,355.341c3.124,3.752,6.465,6.641,6.522,6.69c0.311,0.267,0.346,0.735,0.08,1.045
								c-0.131,0.152-0.31,0.239-0.495,0.256c-0.193,0.017-0.392-0.04-0.55-0.175c-0.208-0.178-2.799-2.419-5.557-5.526V355.341z"/>
						</g>
					</g>
				</g>
				<g>
					<g>
						<g>
							<path style="fill:#ED7C00;" d="M424.505,369.714c4.222-0.384,8.87-1.194,12.693-2.821c0.377-0.16,0.552-0.595,0.392-0.972
								c-0.16-0.377-0.596-0.552-0.972-0.392c-9.124,3.883-23.73,2.9-23.876,2.89c-0.407-0.029-0.763,0.279-0.792,0.687
								c-0.029,0.409,0.279,0.763,0.687,0.792C413.001,369.924,418.291,370.28,424.505,369.714z"/>
						</g>
					</g>
				</g>
			</g>
		</g>
		<path style="fill:#F99900;" d="M455.642,179.482c4.112-16.589,11.063-31.539,17.622-24.837
			c6.566,6.708-5.881,32.207-23.068,45.756l-4.744,6.007c12.353-10.093,31.611-15.44,36.398-9.075
			c4.756,6.325-8.387,8.72-20.756,8.906c-9.415,0.141-15.547,2.392-18.542,3.841l-22.407,28.372
			c19.607-15.927,50.014-24.335,57.587-14.264c7.547,10.036-13.307,13.836-32.934,14.131c-14.831,0.223-24.533,3.745-29.323,6.046
			l-4.468,5.657c-1.103-0.621-2.201-1.248-3.296-1.882l26.658-33.754c0.348-3.605,0.302-8.73-1.135-15.195
			c-2.686-12.075-3.401-25.415,3.854-22.255c6.296,2.743,6.614,17.974,2.122,31.322l9.219-11.673
			C450.665,192.486,453.868,186.642,455.642,179.482z"/>
		<path style="fill:#F99900;" d="M47.853,301.919c-4.112-16.59-11.063-31.539-17.622-24.837
			c-6.566,6.708,5.881,32.207,23.068,45.756l4.744,6.007c-12.353-10.093-31.611-15.44-36.398-9.075
			c-4.756,6.325,8.387,8.72,20.756,8.906c9.416,0.142,15.547,2.392,18.542,3.841l22.407,28.372
			c-19.607-15.927-50.014-24.335-57.587-14.264c-7.546,10.036,13.307,13.836,32.934,14.131c14.831,0.223,24.533,3.745,29.323,6.046
			l4.468,5.657c1.103-0.621,2.201-1.248,3.296-1.882l-26.658-33.754c-0.348-3.605-0.302-8.73,1.136-15.195
			c2.686-12.075,3.401-25.415-3.854-22.254c-6.296,2.743-6.614,17.974-2.122,31.322l-9.219-11.673
			C52.83,314.923,49.628,309.079,47.853,301.919z"/>
	</g>
	<g>
		<g>
			<path style="fill:#373543;" d="M421.298,178.41v186.858c0,7.703-6.244,13.947-13.95,13.947H88.9
				c-7.705,0-13.95-6.244-13.95-13.947V178.41c0-7.705,6.244-13.95,13.95-13.95h318.448
				C415.053,164.46,421.298,170.704,421.298,178.41z"/>
			<path style="fill:#1A100E;" d="M421.297,271.836v93.431c0,7.704-6.245,13.948-13.948,13.948H88.899
				c-7.704,0-13.948-6.245-13.948-13.948v-93.431H421.297z"/>
			<path style="fill:#FFFFFF;" d="M405.913,187.907v167.862c0,4.939-4.003,8.945-8.942,8.945H99.281
				c-2.639,0-5.014-1.144-6.651-2.97c-1.428-1.578-2.294-3.678-2.294-5.974V187.907c0-4.939,4.006-8.945,8.945-8.945h297.69
				c1.651,0,3.196,0.448,4.524,1.231C404.137,181.746,405.913,184.622,405.913,187.907z"/>
			<g>
				<path style="opacity:0.3;fill:#FFFFFF;" d="M405.913,187.907v167.862c0,4.939-4.003,8.945-8.942,8.945H99.281
					c-2.639,0-5.014-1.144-6.651-2.97c-1.428-1.578-2.294-3.678-2.294-5.974V187.907c0-4.939,4.006-8.945,8.945-8.945h297.69
					c1.651,0,3.196,0.448,4.524,1.231C404.137,181.746,405.913,184.622,405.913,187.907z"/>
				<path style="fill:#DBD0CA;" d="M405.913,187.907v9.335H90.336v-9.335c0-4.939,4.006-8.945,8.945-8.945h297.69
					c1.651,0,3.196,0.448,4.524,1.231C404.137,181.746,405.913,184.622,405.913,187.907z"/>
				<path style="fill:#1A100E;" d="M404.298,182.79H91.95c1.613-2.314,4.295-3.827,7.332-3.827H396.97
					C400.007,178.963,402.689,180.476,404.298,182.79z"/>
				<g>
					<path style="fill:#375BC9;" d="M373.163,189.055c0,1.727-1.4,3.127-3.126,3.127c-1.727,0-3.127-1.4-3.127-3.127
						c0-1.727,1.4-3.127,3.127-3.127C371.764,185.928,373.163,187.328,373.163,189.055z"/>
					<path style="fill:#F99900;" d="M383.297,189.055c0,1.727-1.4,3.127-3.126,3.127c-1.727,0-3.127-1.4-3.127-3.127
						c0-1.727,1.4-3.127,3.127-3.127C381.897,185.928,383.297,187.328,383.297,189.055z"/>
					<path style="fill:#FC461A;" d="M392.941,189.055c0,1.727-1.4,3.127-3.127,3.127c-1.727,0-3.126-1.4-3.126-3.127
						c0-1.727,1.4-3.127,3.126-3.127C391.541,185.928,392.941,187.328,392.941,189.055z"/>
				</g>
			</g>
			<g>
				<g>
					<rect x="110.41" y="164.46" style="fill:#DBD0CA;" width="155.684" height="200.253"/>
					<rect x="110.41" y="164.46" style="fill:#1A100E;" width="155.684" height="18.328"/>
				</g>
				<rect x="103.22" y="125.418" style="fill:#FFFFFF;" width="155.684" height="239.295"/>
				<g>
					<g>
						<g>
							<path style="fill:#DBD0CA;" d="M117.578,185.02L117.578,185.02c0,1.582,1.283,2.865,2.865,2.865h125.963
								c1.582,0,2.865-1.283,2.865-2.865l0,0c0-1.582-1.283-2.865-2.865-2.865H120.443
								C118.861,182.156,117.578,183.438,117.578,185.02z"/>
							<path style="fill:#DBD0CA;" d="M117.578,197.432L117.578,197.432c0,1.582,1.283,2.865,2.865,2.865h125.963
								c1.582,0,2.865-1.283,2.865-2.865l0,0c0-1.582-1.283-2.865-2.865-2.865H120.443
								C118.861,194.567,117.578,195.85,117.578,197.432z"/>
							<path style="fill:#DBD0CA;" d="M117.578,209.843L117.578,209.843c0,1.582,1.283,2.865,2.865,2.865h125.963
								c1.582,0,2.865-1.283,2.865-2.865l0,0c0-1.582-1.283-2.865-2.865-2.865H120.443
								C118.861,206.978,117.578,208.261,117.578,209.843z"/>
						</g>
					</g>
					<g>
						<g>
							<path style="fill:#DBD0CA;" d="M117.578,227.067L117.578,227.067c0,1.582,1.283,2.865,2.865,2.865h125.963
								c1.582,0,2.865-1.283,2.865-2.865l0,0c0-1.582-1.283-2.865-2.865-2.865H120.443
								C118.861,224.202,117.578,225.485,117.578,227.067z"/>
							<path style="fill:#DBD0CA;" d="M117.578,239.479L117.578,239.479c0,1.582,1.283,2.865,2.865,2.865h125.963
								c1.582,0,2.865-1.283,2.865-2.865l0,0c0-1.582-1.283-2.865-2.865-2.865H120.443
								C118.861,236.614,117.578,237.896,117.578,239.479z"/>
							<path style="fill:#DBD0CA;" d="M117.578,251.89L117.578,251.89c0,1.582,1.283,2.865,2.865,2.865h125.963
								c1.582,0,2.865-1.283,2.865-2.865l0,0c0-1.582-1.283-2.865-2.865-2.865H120.443
								C118.861,249.025,117.578,250.308,117.578,251.89z"/>
						</g>
					</g>
					<path style="fill:#DBD0CA;" d="M172.564,356.922h-49.83c-2.842,0-5.145-2.304-5.145-5.145v-77.822
						c0-2.842,2.304-5.145,5.145-5.145h49.83c2.842,0,5.145,2.304,5.145,5.145v77.822
						C177.71,354.618,175.406,356.922,172.564,356.922z"/>
					<path style="fill:#DBD0CA;" d="M244.125,356.922h-49.83c-2.842,0-5.145-2.304-5.145-5.145v-77.822
						c0-2.842,2.304-5.145,5.145-5.145h49.83c2.842,0,5.145,2.304,5.145,5.145v77.822
						C249.27,354.618,246.967,356.922,244.125,356.922z"/>
					<g>
						
							<text transform="matrix(1 0 0 1 115.0977 169.4644)" style="fill:#373543; font-family:'Montserrat-Black'; font-size:40.4484px;">NEWS</text>
					</g>
				</g>
			</g>
			<g>
				<path style="fill:#DBD0CA;" d="M329.426,211.543h-49.031c-0.839,0-1.519,0.773-1.519,1.725l0,0c0,0.953,0.68,1.725,1.519,1.725
					h49.031c0.839,0,1.519-0.773,1.519-1.725l0,0C330.946,212.315,330.266,211.543,329.426,211.543z"/>
				<path style="fill:#DBD0CA;" d="M329.426,219.85h-49.031c-0.839,0-1.519,0.773-1.519,1.725l0,0c0,0.953,0.68,1.725,1.519,1.725
					h49.031c0.839,0,1.519-0.773,1.519-1.725l0,0C330.946,220.622,330.266,219.85,329.426,219.85z"/>
				<path style="fill:#DBD0CA;" d="M329.426,228.157h-49.031c-0.839,0-1.519,0.772-1.519,1.725l0,0c0,0.953,0.68,1.725,1.519,1.725
					h49.031c0.839,0,1.519-0.772,1.519-1.725l0,0C330.946,228.93,330.266,228.157,329.426,228.157z"/>
				<path style="fill:#DBD0CA;" d="M329.426,236.464h-49.031c-0.839,0-1.519,0.773-1.519,1.725l0,0c0,0.953,0.68,1.725,1.519,1.725
					h49.031c0.839,0,1.519-0.773,1.519-1.725l0,0C330.946,237.237,330.266,236.464,329.426,236.464z"/>
				<path style="fill:#DBD0CA;" d="M329.426,244.772h-49.031c-0.839,0-1.519,0.772-1.519,1.725l0,0c0,0.953,0.68,1.725,1.519,1.725
					h49.031c0.839,0,1.519-0.773,1.519-1.725l0,0C330.946,245.544,330.266,244.772,329.426,244.772z"/>
				<path style="fill:#DBD0CA;" d="M329.426,253.079h-49.031c-0.839,0-1.519,0.772-1.519,1.725l0,0c0,0.953,0.68,1.725,1.519,1.725
					h49.031c0.839,0,1.519-0.773,1.519-1.725l0,0C330.946,253.851,330.266,253.079,329.426,253.079z"/>
				<path style="fill:#DBD0CA;" d="M329.426,261.386h-49.031c-0.839,0-1.519,0.772-1.519,1.725l0,0c0,0.953,0.68,1.725,1.519,1.725
					h49.031c0.839,0,1.519-0.772,1.519-1.725l0,0C330.946,262.158,330.266,261.386,329.426,261.386z"/>
				<path style="fill:#DBD0CA;" d="M329.426,269.693h-49.031c-0.839,0-1.519,0.772-1.519,1.725l0,0c0,0.953,0.68,1.725,1.519,1.725
					h49.031c0.839,0,1.519-0.772,1.519-1.725l0,0C330.946,270.466,330.266,269.693,329.426,269.693z"/>
			</g>
			<g>
				<path style="fill:#DBD0CA;" d="M393.189,211.543h-49.031c-0.839,0-1.519,0.773-1.519,1.725l0,0c0,0.953,0.68,1.725,1.519,1.725
					h49.031c0.839,0,1.519-0.773,1.519-1.725l0,0C394.708,212.315,394.028,211.543,393.189,211.543z"/>
				<path style="fill:#DBD0CA;" d="M393.189,219.85h-49.031c-0.839,0-1.519,0.773-1.519,1.725l0,0c0,0.953,0.68,1.725,1.519,1.725
					h49.031c0.839,0,1.519-0.773,1.519-1.725l0,0C394.708,220.622,394.028,219.85,393.189,219.85z"/>
				<path style="fill:#DBD0CA;" d="M393.189,228.157h-49.031c-0.839,0-1.519,0.772-1.519,1.725l0,0c0,0.953,0.68,1.725,1.519,1.725
					h49.031c0.839,0,1.519-0.772,1.519-1.725l0,0C394.708,228.93,394.028,228.157,393.189,228.157z"/>
				<path style="fill:#DBD0CA;" d="M393.189,236.464h-49.031c-0.839,0-1.519,0.773-1.519,1.725l0,0c0,0.953,0.68,1.725,1.519,1.725
					h49.031c0.839,0,1.519-0.773,1.519-1.725l0,0C394.708,237.237,394.028,236.464,393.189,236.464z"/>
				<path style="fill:#DBD0CA;" d="M393.189,244.772h-49.031c-0.839,0-1.519,0.772-1.519,1.725l0,0c0,0.953,0.68,1.725,1.519,1.725
					h49.031c0.839,0,1.519-0.773,1.519-1.725l0,0C394.708,245.544,394.028,244.772,393.189,244.772z"/>
				<path style="fill:#DBD0CA;" d="M393.189,253.079h-49.031c-0.839,0-1.519,0.772-1.519,1.725l0,0c0,0.953,0.68,1.725,1.519,1.725
					h49.031c0.839,0,1.519-0.773,1.519-1.725l0,0C394.708,253.851,394.028,253.079,393.189,253.079z"/>
				<path style="fill:#DBD0CA;" d="M393.189,261.386h-49.031c-0.839,0-1.519,0.772-1.519,1.725l0,0c0,0.953,0.68,1.725,1.519,1.725
					h49.031c0.839,0,1.519-0.772,1.519-1.725l0,0C394.708,262.158,394.028,261.386,393.189,261.386z"/>
				<path style="fill:#DBD0CA;" d="M393.189,269.693h-49.031c-0.839,0-1.519,0.772-1.519,1.725l0,0c0,0.953,0.68,1.725,1.519,1.725
					h49.031c0.839,0,1.519-0.772,1.519-1.725l0,0C394.708,270.466,394.028,269.693,393.189,269.693z"/>
			</g>
			<g>
				<g>
					<circle style="fill:#DBD0CA;" cx="336.242" cy="314.669" r="17.162"/>
					<polygon style="fill:#FFFFFF;" points="330.205,323.694 330.205,305.644 345.628,314.669 					"/>
				</g>
				<g>
					<path style="fill:#DBD0CA;" d="M388.783,345.439H284.801c-3.947,0-7.157-3.211-7.157-7.157v-46.087
						c0-3.947,3.211-7.157,7.157-7.157h103.982c3.947,0,7.157,3.211,7.157,7.157v46.087
						C395.94,342.228,392.73,345.439,388.783,345.439z M284.801,287.502c-2.588,0-4.693,2.105-4.693,4.693v46.087
						c0,2.588,2.105,4.693,4.693,4.693h103.982c2.588,0,4.693-2.105,4.693-4.693v-46.087c0-2.588-2.105-4.693-4.693-4.693H284.801z"
						/>
				</g>
			</g>
		</g>
		<path style="fill:#373543;" d="M453.65,371.748v1.195c0,5.944-1.906,11.441-5.143,15.911
			c-4.936,6.828-12.968,11.269-22.038,11.269H69.779c-9.07,0-17.103-4.442-22.038-11.269c-3.237-4.471-5.143-9.967-5.143-15.911
			v-1.195H453.65z"/>
		<path style="fill:#E6E6E6;" d="M202.054,371.748v0.273c0,2.152,1.441,3.897,3.219,3.897h83.915c1.778,0,3.219-1.745,3.219-3.897
			v-0.273H202.054z"/>
		<path style="fill:#1A100E;" d="M448.507,388.854c-4.936,6.828-12.968,11.269-22.038,11.269H69.779
			c-9.07,0-17.103-4.442-22.038-11.269H448.507z"/>
		<path style="opacity:0.1;fill:#FFFFFF;" d="M405.912,187.908v167.86c0,4.939-4.002,8.945-8.941,8.945H99.281
			c-2.639,0-5.014-1.145-6.652-2.969l308.865-181.551C404.137,181.745,405.912,184.621,405.912,187.908z"/>
	</g>
	<g>
		<g>
			<g>
				<polygon style="fill:#FAB18D;" points="366.199,146.627 369.867,154.477 362.112,154.597 359.12,147.454 				"/>
				<g>
					<g>
						<path style="fill:#375BC9;" d="M367.425,153.986c0,0,1.593-2.139,2.858-2.048c1.265,0.092,11.023,7.85,14.366,8.49
							c3.343,0.641,3.033,4.046,1.634,4.046c-4.029,0-26.221-0.161-26.221-0.161s-0.715-7.756,0.136-10.128
							C361.049,151.814,364.811,154.547,367.425,153.986z"/>
						<g>
							<g>
								<path style="fill:#FFFFFF;" d="M372.819,159.399c-0.118,0.035-0.251,0.024-0.366-0.042
									c-0.225-0.128-0.303-0.414-0.175-0.639c0.043-0.075,1.064-1.848,2.438-2.541c1.828-0.924,3.254,0.11,3.314,0.155
									c0.208,0.154,0.251,0.447,0.097,0.655c-0.154,0.208-0.447,0.251-0.655,0.096c-0.039-0.028-1.031-0.725-2.334-0.07
									c-1.12,0.564-2.037,2.152-2.046,2.168C373.029,159.292,372.93,159.366,372.819,159.399z"/>
							</g>
							<g>
								<path style="fill:#FFFFFF;" d="M371.423,158.081c-0.118,0.035-0.25,0.024-0.366-0.042c-0.225-0.128-0.303-0.414-0.175-0.639
									c0.043-0.075,1.064-1.848,2.438-2.541c1.829-0.924,3.254,0.11,3.314,0.154c0.208,0.154,0.251,0.447,0.097,0.655
									c-0.154,0.208-0.447,0.251-0.655,0.096c-0.039-0.028-1.032-0.725-2.334-0.07c-1.124,0.567-2.036,2.152-2.045,2.168
									C371.634,157.973,371.534,158.047,371.423,158.081z"/>
							</g>
							<g>
								<path style="fill:#FFFFFF;" d="M374.711,160.47c-0.118,0.035-0.25,0.024-0.366-0.042c-0.225-0.128-0.303-0.414-0.175-0.639
									c0.043-0.075,1.064-1.848,2.438-2.541c1.829-0.924,3.254,0.11,3.314,0.154c0.207,0.154,0.251,0.447,0.096,0.655
									c-0.154,0.207-0.447,0.251-0.655,0.096c-0.039-0.028-1.032-0.725-2.334-0.07c-1.125,0.567-2.036,2.152-2.046,2.168
									C374.921,160.362,374.822,160.436,374.711,160.47z"/>
							</g>
						</g>
					</g>
				</g>
			</g>
			<g>
				<g>
					<g>
						<g>
							<g>
								<path style="fill:#FC461A;" d="M368.408,149.186l-3.436,1.121l-1.91,0.113l-3.282,0.192
									c-4.337-3.43-16.036-13.752-18.316-19.839c0,0-15.053,35.006-35.866,35.006c-1.35,0,2.218-17.419,5.611-21.041
									c0,0,19.183-35.752,31.62-31.957C348.398,114.48,354.032,122.588,368.408,149.186z"/>
							</g>
						</g>
					</g>
				</g>
				<path style="fill:#DC2C0F;" d="M356.338,148.271c0.546,1.022,1.485,2.465,2.382,3.162c0,0,7.351-0.34,10.927-2.136l-1.604-3.737
					C368.043,145.561,362.19,147.696,356.338,148.271z"/>
				<g>
					<path style="fill:#DC2C0F;" d="M364.972,150.306l-1.91,0.113c-12.767-9.667-18.681-17.853-21.404-23.096
						c-0.094-0.182-0.246-0.241-0.35-0.239c-0.089,0.003-0.153,0.052-0.195,0.155c-6.113,14.391-13.449,23.027-18.528,27.741
						c-5.534,5.135-9.583,6.828-9.751,6.9l-0.234-0.572l-0.234-0.569c0.039-0.017,4.056-1.705,9.44-6.717
						c4.973-4.628,12.163-13.114,18.173-27.266c0.229-0.545,0.71-0.882,1.281-0.904c0.616-0.025,1.193,0.33,1.491,0.902
						C345.498,132.042,351.58,140.398,364.972,150.306z"/>
				</g>
			</g>
		</g>
		<g>
			<g>
				<path style="fill:#3043BC;" d="M310.251,83.952c0,0,14.247,17.006,20.23,19.801c2.626,1.227,5.221,1.659,7.137,1.727
					c0.643,0.024,2.316-0.112,2.408-0.114c0.008,0,0.015,0.002,0.015,0.002c7.109-0.881,15.464-3.021,25.919-7.278l-1.558-4.842
					c0,0-6.281,1.335-13.979,1.884c-2.838,0.2-9.385,0.5-11.806,0.891c-0.6-0.269-1.19-0.561-1.766-0.876
					c-10.623-5.734-17.635-17.409-17.635-17.409C315.854,79.001,311.993,81.359,310.251,83.952z"/>
			</g>
			<g>
				<g>
					<g>
						<path style="fill:#FBB285;" d="M364.137,92.864c0,0,1.456-3.677,3.436-4.726c1.98-1.05,7.617-4.744,8.82-3.638
							c1.203,1.106,0.954,6.415-4.098,10.852c-3.219,2.827-6.461,2.707-6.461,2.707L364.137,92.864z"/>
					</g>
					<g>
						<g>
							<path style="fill:#1A100E;" d="M376.754,87.877l-8.319,7.772c-0.313,0.294-0.877,0.378-1.263,0.191l-5.099-2.465
								c-0.158-0.078-0.262-0.188-0.306-0.313l-0.012-0.041l-0.25-0.852l1.352-0.513l13.089-4.972l0.709-0.267l0.266,0.9
								l0.021,0.062c0.004,0.007,0.005,0.014,0.002,0.022C376.974,87.56,376.911,87.731,376.754,87.877z"/>
						</g>
						<g>
							<path style="fill:#1F2232;" d="M375.946,86.684l-13.089,4.972l7.403-6.917c0.312-0.291,0.877-0.378,1.26-0.192
								L375.946,86.684z"/>
						</g>
						<g>
							<g>
								<path style="fill:#373543;" d="M366.917,94.976l-5.101-2.467c-0.384-0.186-0.443-0.573-0.132-0.864l8.32-7.772
									c0.312-0.291,0.876-0.377,1.261-0.191l5.101,2.467c0.384,0.186,0.443,0.573,0.132,0.864l-8.32,7.772
									C367.866,95.077,367.302,95.162,366.917,94.976z"/>
							</g>
						</g>
						<g>
							<path style="fill:#616077;" d="M367.536,93.583l-3.952-1.911c-0.384-0.186-0.443-0.573-0.132-0.864l6.47-6.045
								c0.312-0.291,0.876-0.377,1.261-0.191l3.952,1.911c0.384,0.186,0.443,0.573,0.132,0.864l-6.47,6.045
								C368.485,93.684,367.921,93.769,367.536,93.583z"/>
						</g>
						<g>
							<path style="fill:#1F2232;" d="M376.947,87.4l-0.004,0.002c0.003-0.008,0.002-0.015-0.002-0.022L376.947,87.4z"/>
						</g>
					</g>
					<g>
						<path style="fill:#FBB285;" d="M367.431,86.277c0,0,1.185,0.185,1.306,1.204c0.121,1.019-0.981,0.614-1.69,0.39
							c-0.709-0.224-1.347,0.001-1.445,0.116C365.292,88.351,365.345,85.976,367.431,86.277z"/>
					</g>
					<g>
						<path style="fill:#FBB285;" d="M372.729,91.81c0,0,1.86-3.056,3.285-4.726c0.949-1.112,1.434,0.501,0.784,1.626
							C376.148,89.835,374.867,92.127,372.729,91.81z"/>
					</g>
				</g>
			</g>
		</g>
		<g>
			<g>
				<path style="fill:#375BC9;" d="M300.249,66.335c0,0-8.978,0.045-13.071,3.746c-4.093,3.7-0.187,11.218,4.253,12.182
					c4.44,0.963,18.303-0.68,19.745-3.056C312.618,76.83,311.704,66.518,300.249,66.335z"/>
			</g>
			<g>
				<g>
					<path style="fill:#375BC9;" d="M286.09,146.91l-4.365-28.143l0.946-38.824l10.442-3.531l0.561-0.19l2.344-0.793l1.86-0.628
						l11.025,1.518l1.794,0.246l0.633,0.087l7.887,1.086c0.074,24.952-2.321,30.342,2.291,50.638
						C323.826,136.031,315.312,163.145,286.09,146.91z"/>
				</g>
			</g>
			<g>
				<g>
					<path style="fill:#3043BC;" d="M300.998,82.371c-7.9-0.029-9.733-6.99-9.75-7.061c-0.039-0.156,0.056-0.314,0.212-0.353
						c0.155-0.04,0.314,0.055,0.353,0.211c0.068,0.271,1.751,6.593,9.185,6.62c0.041,0,0.081,0,0.123,0
						c0.156,0.008,0.292,0.129,0.293,0.29c0.001,0.161-0.129,0.292-0.29,0.293C301.082,82.371,301.039,82.371,300.998,82.371z"/>
				</g>
			</g>
			<g>
				<g>
					<path style="fill:#3043BC;" d="M308.419,81.28c-0.159-0.001-0.288-0.128-0.29-0.287c-0.002-0.16,0.126-0.293,0.286-0.296
						c0.104-0.002,2.4-0.095,2.994-3.2c0.03-0.158,0.182-0.262,0.341-0.231c0.158,0.03,0.262,0.183,0.231,0.341
						c-0.686,3.589-3.528,3.673-3.557,3.673C308.423,81.28,308.421,81.28,308.419,81.28z"/>
				</g>
			</g>
			<g>
				<path style="fill:#3043BC;" d="M295.665,120.668c0,0-1.283,9.794,1.33,14.586c0,0,12.991,0.91,22.436-2.804
					c0,0-2.36-6.836-2.396-13.511L295.665,120.668z"/>
			</g>
			<g>
				<path style="fill:#FFFFFF;" d="M302.602,110.302c-0.008,0-0.017,0-0.025-0.001c-0.16-0.014-0.279-0.156-0.264-0.316
					c0.654-7.261-2.067-25.592-2.095-25.777c-0.024-0.159,0.086-0.307,0.245-0.331c0.159-0.024,0.307,0.086,0.331,0.245
					c0.028,0.185,2.758,18.585,2.099,25.915C302.88,110.189,302.752,110.303,302.602,110.302z"/>
			</g>
			<g>
				<path style="fill:#FFFFFF;" d="M312.211,108.88c-0.008,0-0.017,0-0.025-0.001c-0.16-0.014-0.278-0.156-0.264-0.316
					c0.654-7.261-2.159-25.735-2.188-25.921c-0.024-0.159,0.085-0.308,0.244-0.332c0.159-0.025,0.308,0.085,0.332,0.244
					c0.028,0.187,2.852,18.731,2.192,26.062C312.488,108.767,312.36,108.881,312.211,108.88z"/>
			</g>
		</g>
		<g>
			<g>
				<polygon style="fill:#FAB18D;" points="359.174,215.671 362.061,222.097 356.141,224.643 352.698,218.006 				"/>
				<g>
					<g>
						<path style="fill:#375BC9;" d="M360.768,221.961c0,0,0.606-2.597,1.802-3.019c1.196-0.421,13.241,2.794,16.561,2.046
							c3.321-0.748,3.709,1.768,3.65,3.166c-0.059,1.398-24.639,10.216-24.639,10.216s-3.753-6.825-3.92-9.339
							C354.055,222.516,358.596,223.52,360.768,221.961z"/>
						<g>
							<g>
								<path style="fill:#FFFFFF;" d="M367.875,224.77c-0.094,0.08-0.22,0.122-0.352,0.108c-0.257-0.028-0.443-0.258-0.416-0.515
									c0.009-0.086,0.237-2.119,1.22-3.303c1.307-1.577,3.027-1.199,3.1-1.182c0.252,0.058,0.409,0.31,0.35,0.562
									c-0.058,0.252-0.31,0.409-0.562,0.35c-0.047-0.01-1.235-0.253-2.167,0.868c-0.801,0.965-1.008,2.787-1.009,2.805
									C368.025,224.587,367.964,224.695,367.875,224.77z"/>
							</g>
							<g>
								<path style="fill:#FFFFFF;" d="M366.069,224.119c-0.094,0.079-0.22,0.122-0.352,0.108c-0.257-0.028-0.443-0.258-0.416-0.516
									c0.009-0.086,0.237-2.12,1.22-3.303c1.308-1.578,3.027-1.199,3.1-1.182c0.252,0.058,0.409,0.31,0.35,0.562
									c-0.058,0.252-0.31,0.409-0.562,0.35c-0.047-0.01-1.236-0.252-2.167,0.868c-0.805,0.969-1.008,2.786-1.009,2.805
									C366.219,223.935,366.158,224.043,366.069,224.119z"/>
							</g>
							<g>
								<path style="fill:#FFFFFF;" d="M370.037,224.995c-0.094,0.08-0.22,0.122-0.352,0.108c-0.257-0.028-0.443-0.259-0.416-0.516
									c0.009-0.086,0.237-2.119,1.22-3.303c1.308-1.578,3.027-1.199,3.1-1.182c0.252,0.058,0.409,0.31,0.35,0.562
									c-0.058,0.252-0.31,0.409-0.562,0.35c-0.047-0.01-1.236-0.252-2.167,0.868c-0.805,0.969-1.008,2.786-1.009,2.805
									C370.187,224.812,370.126,224.921,370.037,224.995z"/>
							</g>
						</g>
					</g>
				</g>
			</g>
			<g>
				<g>
					<g>
						<g>
							<g>
								<g>
									<path style="fill:#FC461A;" d="M360.665,216.917c-0.614,0.697-2.509,1.754-4.574,2.678c-0.374,0.17-0.759,0.333-1.138,0.49
										c-0.67,0.276-1.336,0.527-1.961,0.742c0,0-14.043-25.883-19.432-44.653c0,0-47.533-5.87-49.179-22.517
										c-0.057-0.557-0.059-1.126-0.007-1.71c0.141-1.587,0.69-3.262,1.717-5.037c1.084-1.868,17.353-0.047,26.142,2.42
										c0,0,23.828,9.282,32.638,18.846C349.33,173.016,360.665,216.917,360.665,216.917z"/>
								</g>
							</g>
						</g>
					</g>
				</g>
				<path style="fill:#DC2C0F;" d="M350.456,218.115l2.242,3.587c0,0,5.585-0.965,9.363-4.785l-1.396-3.203
					C360.665,213.714,353.872,217.062,350.456,218.115z"/>
				<g>
					<path style="fill:#DC2C0F;" d="M356.091,219.596c-0.374,0.17-0.759,0.333-1.138,0.49
						c-7.102-11.754-16.963-39.214-19.161-45.806c-0.148-0.446-0.53-0.779-0.998-0.867c-23.094-4.342-36.4-10.399-43.497-14.716
						c-3.127-1.902-5.359-3.637-6.917-5.039c-0.057-0.557-0.059-1.126-0.007-1.71c1.511,1.476,3.95,3.511,7.705,5.781
						c7.006,4.236,20.142,10.187,42.945,14.474c0.907,0.17,1.649,0.818,1.939,1.688C339.16,180.487,349.061,208.071,356.091,219.596
						z"/>
				</g>
			</g>
		</g>
		<g>
			<path style="fill:#FBB285;" d="M274.803,156.736c0,0,3.235,4.386,2.968,6.656s-3.196,6.546-5.537,6.753
				c-2.341,0.206,2.69-5.496,1.503-5.312c-1.437,0.223-11.139,8.182-13.186,8.182c-2.048,0,2.409-3.7,4.145-4.634
				c0,0-4.59,2.053-5.658,3.121c-1.068,1.068-1.844-1.223,3.497-4.472c0,0-4.899,2.781-5.233,2.825
				c-1.09,0.145,2.019-3.5,4.696-4.818c0,0-3.927,1.912-4.326,1.921c-0.552,0.012,0.632-1.273,3.547-2.889
				c2.622-1.453,6.918-8.126,6.918-8.126L274.803,156.736z"/>
			<path style="fill:#3043BC;" d="M282.671,79.943c0,0-10.887,20.912-13.367,42.786l-1.168,33.214c0,0,1.119,2.367,6.667,0.793
				l5.366-33.21l4.112-15.196C284.282,108.33,286.151,89.631,282.671,79.943z"/>
		</g>
		<g>
			<path style="fill:#373543;" d="M316.111,57.332c-1.157,6.543-7.398,10.909-13.941,9.752c-6.543-1.156-10.909-7.398-9.753-13.941
				c1.157-6.543,7.398-10.909,13.941-9.752C312.901,44.547,317.268,50.789,316.111,57.332z"/>
			<path style="fill:#373543;" d="M316.293,55.174c0,0,3.519-0.333,3.652-3.667c0.113-2.838-3.46-1.617-2.79-3.732
				c0.669-2.115,1.653-3.972-1.053-5.009c-2.367-0.907-2.705,0.765-5.493-2.24c-3.293-3.551-7.392,2.599-10.821,2.199
				c-5.057-0.589-6.189,2.13-7.082,4.307c-0.892,2.177,0.753,4.106,0.753,4.106L316.293,55.174z"/>
			<g>
				<path style="fill:#FF8864;" d="M313.535,60.295c0,0,2.319-2.17,3.348,0.145c1.03,2.316-2.023,8.078-5.176,5.982L313.535,60.295z
					"/>
				<g>
					<path style="fill:#FF664D;" d="M312.787,64.666c0.126,0.022,0.257-0.041,0.315-0.162c0.863-1.793,2.953-2.212,2.974-2.216
						c0.159-0.03,0.263-0.184,0.233-0.343c-0.03-0.159-0.183-0.263-0.342-0.233c-0.098,0.018-2.399,0.473-3.393,2.538
						c-0.07,0.146-0.009,0.321,0.137,0.391C312.736,64.653,312.761,64.661,312.787,64.666z"/>
				</g>
				<g>
					<g>
						<path style="fill:#FF664D;" d="M314.928,64.064c0.054,0.009,0.11,0.004,0.164-0.018c0.15-0.063,0.22-0.234,0.157-0.384
							c-0.01-0.025-0.263-0.614-0.929-1.065c-0.133-0.091-0.316-0.056-0.407,0.078c-0.091,0.134-0.056,0.316,0.078,0.407
							c0.515,0.349,0.715,0.802,0.717,0.807C314.749,63.984,314.833,64.048,314.928,64.064z"/>
					</g>
				</g>
			</g>
			<path style="fill:#FAB18D;" d="M297.903,69.327l-1.074,6.077c0,0,2.025,3.12,4.439,3.764c2.41,0.646,4.414-1.999,4.414-1.999
				l1.033-5.844L297.903,69.327z"/>
			<path style="fill:#FF8864;" d="M297.903,69.327l-0.477,2.696c1.322,2.116,4.162,3.088,8.597,3.214l0.691-3.912L297.903,69.327z"
				/>
			<path style="fill:#FAB18D;" d="M294.254,52.588c-0.305,2.382-0.602,5.375-0.569,7.816c0.008,0.609,0.037,1.186,0.091,1.707
				c0.487,4.704,2.328,12.949,11.849,11.333c4.205-0.712,6.817-4.794,8.426-9.13c1.092-2.945,1.719-6.005,2.067-8.209
				c0.353-2.251-0.508-4.517-2.265-5.967c-4.756-3.931-10.531-3.8-14.453-3.037C296.679,47.628,294.606,49.842,294.254,52.588z"/>
			<path style="fill:#373543;" d="M308.893,60.292c-0.115,0.649,0.127,1.234,0.539,1.306c0.412,0.073,0.84-0.394,0.954-1.042
				c0.115-0.649-0.127-1.234-0.539-1.307C309.435,59.177,309.008,59.644,308.893,60.292z"/>
			<path style="fill:#373543;" d="M300.148,58.747c-0.115,0.649,0.127,1.234,0.539,1.307c0.412,0.073,0.84-0.394,0.954-1.043
				c0.115-0.649-0.127-1.234-0.539-1.307C300.69,57.631,300.263,58.098,300.148,58.747z"/>
			<path style="fill:#373543;" d="M312.706,57.247c0,0-2.891-1.778-5.467-1.167l0.003,1.146c0,0,2.694-0.12,5.065,1.275
				C312.556,58.016,312.815,57.809,312.706,57.247z"/>
			<path style="fill:#373543;" d="M298.482,54.732c0,0,3.326-0.679,5.536,0.778l-0.396,1.076c0,0-2.49-1.037-5.195-0.539
				C298.359,55.507,298.187,55.223,298.482,54.732z"/>
			<g>
				<g>
					<path style="fill:#FF8864;" d="M303.939,64.183c-0.487-0.086-0.937-0.361-1.006-0.405c-0.137-0.086-0.177-0.267-0.091-0.404
						c0.086-0.137,0.267-0.178,0.404-0.092c0.242,0.152,0.839,0.428,1.139,0.314c0.058-0.022,0.14-0.072,0.19-0.244
						c0.283-0.99,0.604-4.418,0.607-4.452c0.015-0.161,0.158-0.28,0.319-0.265c0.162,0.015,0.28,0.158,0.265,0.319
						c-0.013,0.143-0.33,3.517-0.627,4.559c-0.112,0.392-0.358,0.559-0.544,0.631C304.389,64.222,304.16,64.222,303.939,64.183z"/>
				</g>
			</g>
			<path style="fill:#FFFFFF;" d="M307.258,66.591c-0.446,1.145-1.616,3.191-4.258,2.724c-2.648-0.468-3.038-2.595-3.05-4.016
				L307.258,66.591z"/>
			<g>
				<path style="fill:#FF8864;" d="M302.77,70.829c-0.747-0.132-1.314-0.622-1.338-0.643c-0.122-0.107-0.134-0.292-0.027-0.414
					c0.107-0.122,0.292-0.134,0.414-0.027c0.004,0.004,0.471,0.404,1.053,0.507c0.534,0.094,1.1-0.122,1.105-0.124
					c0.15-0.06,0.321,0.014,0.381,0.164c0.06,0.15-0.013,0.321-0.164,0.381C304.165,70.684,303.475,70.953,302.77,70.829z"/>
			</g>
			<path style="fill:#373543;" d="M313.491,62.273c0.428-1.152,0.916-2.651,0.898-3.466c-0.035-1.444-1.044-2.467-0.422-3.743
				c0.623-1.281-0.542-2.977-1.547-3.402c-1.002-0.427-3.539-0.339-5.743-1.906c-2.104-1.498-6.234-1.423-7.146-0.064
				c-1.103,1.646-0.061,2.004-2.551,3.553c-0.991,0.618-0.329,2.795-0.414,4.12c-0.041,0.609-0.083,0.903-0.22,1.541l-0.066,0.324
				l-2.572-0.455c0.073-2.065,0.303-4.315,0.543-6.19c0.351-2.746,2.427-4.958,5.148-5.487c3.922-0.762,9.696-0.896,14.454,3.037
				c1.755,1.452,2.618,3.716,2.263,5.967c-0.275,1.748-0.727,4.035-1.449,6.378L313.491,62.273z"/>
			<g>
				<path style="fill:#FAB18D;" d="M294.653,60.089c0.127-0.671,0.198-1.352,0.198-2.035c-0.001-0.934-0.118-1.802-0.978-2.344
					c-0.692-0.435-1.487-0.582-2.202,0.158c-1.761,1.822-1.345,8.535,2.335,7.648L294.653,60.089z"/>
				<g>
					<g>
						<path style="fill:#FF8864;" d="M293.676,61.524c-0.119-0.047-0.198-0.168-0.185-0.302c0.195-1.98-1.371-3.425-1.387-3.439
							c-0.12-0.109-0.129-0.294-0.021-0.414c0.108-0.12,0.294-0.13,0.414-0.021c0.074,0.066,1.803,1.652,1.578,3.933
							c-0.016,0.161-0.159,0.279-0.321,0.263C293.727,61.54,293.701,61.533,293.676,61.524z"/>
					</g>
				</g>
				<g>
					<path style="fill:#FF8864;" d="M292.161,59.896c-0.051-0.02-0.096-0.054-0.131-0.101c-0.095-0.131-0.066-0.314,0.066-0.409
						c0.022-0.016,0.544-0.387,1.348-0.426c0.161-0.009,0.299,0.117,0.307,0.278c0.008,0.162-0.117,0.299-0.279,0.307
						c-0.622,0.03-1.028,0.313-1.032,0.316C292.355,59.922,292.25,59.932,292.161,59.896z"/>
				</g>
			</g>
		</g>
	</g>
	<g>
		<ellipse style="fill:#EDE4DD;" cx="153.576" cy="431.645" rx="70.512" ry="18.432"/>
		<g>
			<path style="fill:#373543;" d="M132.142,316.469l0.003-0.035c0.077-0.43,0.137-0.861,0.181-1.287
				c0.649-6.257-2.119-18.064-15.872-17.542c0,0-11.39,0.21-13.724,11.099c0,0-1.019,5.029-1.725,8.673c0,0,0.448,7.169-5.856,9.407
				c-6.304,2.238-9.278,5.629-7.446,10.255c1.831,4.626,0.645,4.116-2.802,9.291c-3.447,5.175-1.507,11.327,4.729,13.148
				c7.875,2.3,12.301-7.046,22.872-4.122c10.571,2.924,25.697-2.542,25.606-10.486c-0.091-7.945-8.567-11.051-9.145-14.952
				C128.384,326.018,131.892,320.405,132.142,316.469z"/>
			<path style="fill:#DC2C0F;" d="M161.545,392.963c-20.556-27.636-32.771-58.697-32.771-58.697l1.886,26.776
				c0,0,17.534,29.364,23.637,35.907C156.731,396.949,161.545,396.122,161.545,392.963z"/>
			<g>
				<g>
					<polygon style="fill:#FAB18D;" points="204.845,419.834 210.592,423.908 206.781,429.105 200.448,425.131 					"/>
					<g>
						<g>
							<path style="fill:#DC2C0F;" d="M209.409,424.446c0,0-0.795-2.546,0.022-3.516c0.817-0.97,12.829-4.307,15.311-6.636
								c2.483-2.329,4.093-0.357,4.751,0.878c0.658,1.235-16.054,21.3-16.054,21.3s-6.696-3.978-8.115-6.061
								C203.905,428.33,208.327,426.892,209.409,424.446z"/>
							<g>
								<g>
									<path style="fill:#FFFFFF;" d="M216.958,423.263c-0.041,0.117-0.128,0.217-0.249,0.272
										c-0.236,0.107-0.513,0.002-0.62-0.233c-0.036-0.079-0.871-1.947-0.623-3.466c0.327-2.022,2.001-2.568,2.072-2.59
										c0.246-0.078,0.509,0.06,0.587,0.307c0.078,0.246-0.06,0.509-0.307,0.587c-0.045,0.015-1.193,0.409-1.428,1.847
										c-0.201,1.238,0.545,2.913,0.553,2.93C216.995,423.03,216.997,423.154,216.958,423.263z"/>
								</g>
								<g>
									<path style="fill:#FFFFFF;" d="M215.071,423.618c-0.041,0.116-0.127,0.217-0.249,0.272
										c-0.236,0.107-0.513,0.002-0.62-0.233c-0.036-0.079-0.871-1.947-0.624-3.466c0.327-2.023,2.001-2.568,2.072-2.591
										c0.247-0.078,0.509,0.06,0.587,0.307c0.078,0.246-0.06,0.51-0.307,0.587c-0.045,0.015-1.193,0.409-1.428,1.847
										c-0.202,1.243,0.545,2.912,0.553,2.929C215.108,423.384,215.11,423.508,215.071,423.618z"/>
								</g>
								<g>
									<path style="fill:#FFFFFF;" d="M218.936,422.361c-0.041,0.117-0.128,0.217-0.249,0.272
										c-0.236,0.106-0.513,0.002-0.62-0.233c-0.036-0.079-0.871-1.947-0.624-3.466c0.327-2.023,2.001-2.568,2.072-2.591
										c0.247-0.078,0.509,0.06,0.587,0.307c0.077,0.246-0.06,0.51-0.307,0.587c-0.045,0.015-1.193,0.409-1.428,1.847
										c-0.202,1.243,0.545,2.913,0.553,2.929C218.973,422.127,218.975,422.251,218.936,422.361z"/>
								</g>
							</g>
						</g>
					</g>
				</g>
				<g>
					<g>
						<g>
							<g>
								<g>
									<path style="fill:#3043BC;" d="M203.867,425.482c-0.276,0.237-0.562,0.453-0.858,0.651c-0.65,0.473-1.36,0.877-2.119,1.232
										c0,0-23.725-14.203-38.303-28.2c0,0-25.006,13.573-38.776,9.236c-0.217-0.069-0.503-0.335-0.798-0.739h-0.01
										c-0.197-0.276-0.414-0.611-0.621-1.005c-1.34-2.504-2.494-7.116,0.049-9.817c0,0,28.801-12.814,41.871-9.65
										c13.08,3.174,42.423,32.31,42.423,32.31C206.981,421.756,205.799,423.846,203.867,425.482z"/>
								</g>
							</g>
						</g>
					</g>
					<g>
						<path style="fill:#171EA9;" d="M203.867,425.482c-0.276,0.237-0.562,0.453-0.858,0.651
							c-21.645-12.626-34.794-25.351-38.381-29.037c-0.512-0.522-1.311-0.611-1.952-0.207
							c-17.111,10.616-33.867,11.01-39.663,10.773h-0.01c-0.197-0.276-0.414-0.611-0.621-1.005
							c4.889,0.266,22.128,0.335,39.771-10.606c1.035-0.651,2.346-0.493,3.174,0.365
							C168.915,400.091,182.123,412.865,203.867,425.482z"/>
					</g>
					<path style="fill:#375BC9;" d="M198.165,426.592l3.733,1.988c0,0,4.357-3.625,5.724-8.821l-2.937-2.536
						C204.685,417.224,201.564,424.02,198.165,426.592z"/>
				</g>
			</g>
			<g>
				<g>
					<polygon style="fill:#FAB18D;" points="193.14,427.548 198.887,431.622 195.077,436.819 188.743,432.845 					"/>
					<g>
						<g>
							<path style="fill:#FC461A;" d="M197.704,432.16c0,0-0.795-2.546,0.022-3.516c0.817-0.97,12.829-4.307,15.311-6.636
								c2.483-2.329,4.093-0.357,4.751,0.878c0.658,1.235-16.054,21.3-16.054,21.3s-6.696-3.978-8.115-6.061
								C192.2,436.043,196.622,434.605,197.704,432.16z"/>
							<g>
								<g>
									<path style="fill:#FFFFFF;" d="M205.254,430.977c-0.041,0.117-0.127,0.217-0.249,0.272
										c-0.236,0.106-0.513,0.002-0.62-0.233c-0.036-0.079-0.87-1.947-0.623-3.466c0.327-2.022,2.001-2.568,2.072-2.59
										c0.246-0.078,0.509,0.06,0.587,0.307c0.078,0.246-0.06,0.509-0.307,0.587c-0.045,0.015-1.193,0.409-1.428,1.847
										c-0.201,1.238,0.545,2.913,0.553,2.93C205.29,430.743,205.292,430.867,205.254,430.977z"/>
								</g>
								<g>
									<path style="fill:#FFFFFF;" d="M203.367,431.331c-0.041,0.116-0.128,0.217-0.249,0.272
										c-0.236,0.107-0.513,0.002-0.62-0.233c-0.036-0.079-0.871-1.947-0.624-3.466c0.327-2.023,2.001-2.568,2.072-2.591
										c0.247-0.078,0.509,0.06,0.587,0.307c0.078,0.246-0.059,0.51-0.307,0.587c-0.045,0.015-1.193,0.409-1.427,1.847
										c-0.202,1.243,0.545,2.912,0.553,2.929C203.403,431.098,203.405,431.221,203.367,431.331z"/>
								</g>
								<g>
									<path style="fill:#FFFFFF;" d="M207.232,430.074c-0.041,0.117-0.127,0.217-0.249,0.272
										c-0.236,0.106-0.513,0.002-0.62-0.234c-0.036-0.079-0.871-1.947-0.624-3.466c0.327-2.023,2.001-2.568,2.072-2.591
										c0.247-0.078,0.51,0.06,0.587,0.307c0.077,0.246-0.06,0.51-0.307,0.587c-0.045,0.015-1.193,0.409-1.428,1.847
										c-0.202,1.243,0.545,2.912,0.553,2.929C207.268,429.841,207.27,429.965,207.232,430.074z"/>
								</g>
							</g>
						</g>
					</g>
				</g>
				<g>
					<g>
						<g>
							<g>
								<path style="fill:#375BC9;" d="M191.142,432.204c-0.247,0.246-0.523,0.473-0.808,0.69c-0.512,0.414-1.074,0.798-1.695,1.173
									c0,0-25.075-11.67-41.023-24.089c0,0-27.569,14.174-41.91,12.528c-11.296-1.281-9.936-18.658-6.91-23.36
									c0,0,35.967-3.056,49.293-1.252c13.336,1.804,45.114,28.456,45.114,28.456C193.705,428.646,192.887,430.558,191.142,432.204
									z"/>
							</g>
						</g>
					</g>
					<g>
						<path style="fill:#3043BC;" d="M191.142,432.204c-0.247,0.246-0.523,0.473-0.808,0.69
							c-15.554-8.625-37.12-23.173-41.398-26.081c-0.532-0.365-1.193-0.414-1.774-0.148c-8.181,3.736-35.395,15.642-42.147,11.877
							c-7.747-4.307-5.037-17.121-4.918-17.663l0.956,0.217c-0.02,0.118-2.661,12.626,4.445,16.589
							c6.505,3.617,35.503-9.295,41.25-11.917c0.897-0.414,1.922-0.325,2.74,0.227C153.786,408.923,175.598,423.629,191.142,432.204
							z"/>
					</g>
					<path style="fill:#5573ED;" d="M185.105,433.274l3.733,1.988c0,0,4.357-3.625,5.724-8.821l-3.183-2.182
						C191.378,424.26,188.504,430.701,185.105,433.274z"/>
				</g>
			</g>
			<g>
				<path style="fill:#FC461A;" d="M129.763,378.833c-0.54,9.406-0.897,9.459,1.793,17.539c-15.891,5.64-21.326,6.734-34.147,6.296
					c-0.463-7.729-0.964-16.811-0.74-24.913c0.672-24.088,2.539-39.137,2.539-39.137l6.614-2.556l6.777-2.619l11.497,0.584
					l2.42,0.124l2.257,0.116c0,0,2.382,11.829,6.022,21.9c2.96,8.189-0.436,9.835-2.291,11.785
					c-0.073,0.076-0.141,0.151-0.209,0.229c-0.263,0.302-0.48,0.613-0.631,0.964c-0.046,0.107-0.09,0.221-0.136,0.343
					c-0.112,0.307-0.224,0.652-0.326,1.025C130.306,373.699,129.763,378.833,129.763,378.833z"/>
				<g>
					<path style="fill:#DC2C0F;" d="M132.505,367.951c-0.073,0.076-0.141,0.151-0.209,0.229c-0.263,0.302-0.48,0.613-0.631,0.964
						c-0.046,0.107-0.09,0.221-0.136,0.343c-2.877,1.251-8.976,3.374-17.177,3.374c-0.37,0-0.745-0.002-1.125-0.012
						c-0.27-0.007-0.482-0.229-0.477-0.499c0.007-0.265,0.224-0.475,0.487-0.475h0.012
						C123.534,372.119,130.818,368.798,132.505,367.951z"/>
				</g>
				<path style="fill:#FBB285;" d="M123.278,333.986c0.83,3.643,2.615,11.012-2.85,11.154c-6.569,0.171-13.142-6.3-14.606-9.078
					l6.777-2.619L123.278,333.986z"/>
			</g>
			<g>
				<path style="fill:#DC2C0F;" d="M138.107,392.431c-9.334-5.891-21.82-17.592-21.82-17.592s-5.507-6.569-17.079-36.221
					c0,0-6.211,7.163-1.903,23.191c4.197,15.616,10.946,21.222,10.946,21.222s17.251,12.357,26.382,15.418
					C136.07,396.042,136.785,394.902,138.107,392.431z"/>
			</g>
			<g>
				<path style="fill:#ED7C00;" d="M182.548,394.978l-58.401,5.843c-0.989,0.099-1.871-0.622-1.97-1.611l-0.111-1.106
					c-0.099-0.989,0.622-1.871,1.611-1.97l58.401-5.843c0.989-0.099,1.87,0.622,1.97,1.611l0.111,1.106
					C184.258,393.997,183.537,394.879,182.548,394.978z"/>
				<g>
					<g>
						<polygon style="fill:#F99900;" points="184.338,394.799 133.63,399.703 146.275,370.652 196.983,365.747 						"/>
						<polygon style="fill:#ED7C00;" points="181.185,395.105 181.181,395.115 130.474,400.019 143.117,370.967 146.272,370.661 
							133.63,399.703 						"/>
					</g>
					<path style="fill:#ED7C00;" d="M169.176,382.338c0.178,1.784-1.123,3.374-2.907,3.553c-1.784,0.178-3.374-1.123-3.553-2.906
						c-0.179-1.784,1.123-3.374,2.906-3.553C167.407,379.253,168.997,380.554,169.176,382.338z"/>
				</g>
			</g>
			<g>
				<g>
					<g>
						<path style="fill:#FF8864;" d="M127.462,316.751c0,0,2.174-2.272,3.423-0.102c1.248,2.17-1.364,7.977-4.755,6.175
							L127.462,316.751z"/>
						<path style="fill:#FFFFFF;" d="M127.749,322.557c-0.034,0.356,0.227,0.673,0.584,0.707c0.356,0.034,0.673-0.227,0.707-0.583
							c0.034-0.356-0.227-0.673-0.583-0.707C128.1,321.94,127.784,322.201,127.749,322.557z"/>
						<g>
							<path style="fill:#FF664D;" d="M127.078,321.043c0.13,0.012,0.258-0.058,0.307-0.18c0.724-1.801,2.816-2.359,2.837-2.364
								c0.159-0.041,0.252-0.197,0.208-0.349c-0.044-0.152-0.21-0.242-0.368-0.202c-0.098,0.025-2.403,0.633-3.237,2.707
								c-0.059,0.147,0.019,0.312,0.173,0.369C127.024,321.034,127.051,321.04,127.078,321.043z"/>
						</g>
						<g>
							<g>
								<path style="fill:#FF664D;" d="M129.206,320.304c0.055,0.005,0.113-0.004,0.166-0.03c0.146-0.072,0.203-0.243,0.127-0.383
									c-0.013-0.023-0.321-0.576-1.038-0.965c-0.143-0.078-0.327-0.031-0.408,0.105c-0.081,0.136-0.03,0.311,0.115,0.389
									c0.555,0.301,0.798,0.726,0.8,0.73C129.016,320.24,129.108,320.295,129.206,320.304z"/>
							</g>
						</g>
					</g>
					<path style="fill:#FBB285;" d="M111.311,327.879l-0.703,7.363c0,0,3.17,2.967,5.818,3.452c2.645,0.487,3.867-2.572,3.867-2.572
						l0.654-6.852L111.311,327.879z"/>
					<path style="fill:#FF8864;" d="M111.242,328.6l-0.28,2.937c1.602,2.159,4.715,3.167,9.489,2.922l0.428-4.469L111.242,328.6z"/>
					<path style="fill:#FBB285;" d="M128.361,319.662c-0.153,0.703-0.323,1.417-0.519,2.125c-1.303,4.707-4.825,9.59-8.732,10.092
						c-8.436,1.086-11.246-5.727-12.11-10.638c-0.095-0.546,0.237-1.128,0.181-1.768c-0.131-1.517-0.572-3.268-0.549-4.952
						c0.016-1.167,0.058-2.315,0.108-3.351c0.144-2.923,2.084-5.436,4.818-6.228c3.94-1.147,9.818-1.793,14.973,1.931
						c1.904,1.375,2.96,3.686,2.777,6.087C129.166,314.793,128.892,317.182,128.361,319.662z"/>
					<g>
						<g>
							<path style="fill:#FF8864;" d="M117.93,322.404c-0.154-0.015-0.279-0.138-0.29-0.298c-0.013-0.178,0.121-0.332,0.299-0.344
								l1.119-0.08l-1.132-4.186c-0.046-0.172,0.055-0.349,0.227-0.395c0.172-0.046,0.349,0.055,0.395,0.227l1.336,4.942
								l-1.899,0.136C117.966,322.406,117.948,322.406,117.93,322.404z"/>
						</g>
					</g>
					<path style="fill:#373543;" d="M125.951,311.293c3.087,1.78,1.696,5.517,2.603,7.545c0.059,0.132,0.13,0.161,0.213,0.105
						c0.552-2.526,0.833-4.962,0.976-6.831c0.185-2.448-0.936-4.807-2.946-6.216c-5.444-3.814-11.637-3.175-15.785-2.018
						c-2.879,0.799-4.915,3.355-5.057,6.335c-0.049,1.057-0.09,2.227-0.103,3.417c0.506,0.37,1.8,0.64,1.773,1.507
						c-0.072,2.291-0.11,3.861,0.379,3.77c0.824-0.154,1.585-2.865,0.838-4.736c0,0,0.852-1.13,3.97-2.002
						c3.999-1.118,7.923-2.965,7.923-2.965s1.549-0.742,2.203-1.65C122.936,307.552,123.599,309.937,125.951,311.293z"/>
					<path style="fill:#373543;" d="M122.75,317.586c-0.067,0.707,0.242,1.314,0.691,1.357c0.449,0.043,0.868-0.495,0.936-1.202
						c0.067-0.707-0.242-1.314-0.691-1.357C123.237,316.341,122.818,316.879,122.75,317.586z"/>
					<path style="fill:#373543;" d="M113.172,316.696c-0.068,0.707,0.242,1.314,0.691,1.357c0.449,0.043,0.868-0.495,0.936-1.202
						c0.067-0.707-0.242-1.314-0.691-1.357C113.659,315.451,113.24,315.989,113.172,316.696z"/>
					<path style="fill:#373543;" d="M125.449,314.061c-0.642-0.19-1.944-0.526-3.357-0.611c-0.372-0.022-0.696,0.229-0.673,0.529
						l0.001,0.008c0.018,0.239,0.256,0.422,0.554,0.428c0.967,0.019,3.476,0.275,4.612,0.734c0.049-0.166-0.047-0.357-0.197-0.53
						C126.161,314.356,125.824,314.172,125.449,314.061z"/>
					<path style="fill:#373543;" d="M112.358,312.966c0.665-0.074,2.006-0.177,3.412-0.012c0.37,0.043,0.645,0.347,0.569,0.639
						l-0.002,0.007c-0.06,0.233-0.326,0.37-0.62,0.324c-0.955-0.151-3.471-0.341-4.669-0.088c-0.019-0.172,0.109-0.343,0.288-0.487
						C111.605,313.131,111.969,313.009,112.358,312.966z"/>
					<path style="fill:#FFFFFF;" d="M121.304,324.654c-0.345,1.102-1.333,3.095-3.995,2.841c-2.668-0.255-3.236-2.217-3.369-3.544
						L121.304,324.654z"/>
					<g>
						<path style="fill:#FF8864;" d="M117.163,329.431c0.768,0.073,1.486-0.276,1.516-0.29c0.156-0.077,0.221-0.267,0.144-0.423
							c-0.077-0.156-0.266-0.22-0.422-0.144l0,0c-0.006,0.003-0.591,0.285-1.177,0.229c-0.634-0.061-1.17-0.451-1.175-0.455
							c-0.141-0.104-0.338-0.074-0.442,0.066c-0.104,0.14-0.075,0.337,0.065,0.441C115.698,328.875,116.349,329.353,117.163,329.431
							z"/>
					</g>
				</g>
				<g>
					<path style="fill:#FBB285;" d="M107.574,314.832c0,0-1.994-2.952-3.513-1.106c-1.519,1.846-0.194,7.854,3.2,6.743
						L107.574,314.832z"/>
					<path style="fill:#FFFFFF;" d="M105.199,320.404c-0.034,0.356,0.227,0.673,0.584,0.707c0.356,0.034,0.673-0.227,0.707-0.584
						c0.034-0.356-0.227-0.673-0.584-0.707C105.55,319.787,105.233,320.048,105.199,320.404z"/>
					<g>
						<path style="fill:#FF8864;" d="M106.721,318.6c-0.12-0.012-0.223-0.102-0.246-0.226c-0.333-1.848-2.128-2.755-2.146-2.764
							c-0.137-0.068-0.193-0.233-0.126-0.37c0.067-0.137,0.233-0.193,0.37-0.126c0.084,0.041,2.062,1.035,2.446,3.162
							c0.027,0.15-0.073,0.294-0.223,0.321C106.771,318.601,106.746,318.603,106.721,318.6z"/>
					</g>
					<g>
						<g>
							<path style="fill:#FF8864;" d="M104.926,317.514c-0.051-0.005-0.101-0.024-0.145-0.058c-0.12-0.095-0.141-0.268-0.046-0.388
								c0.016-0.02,0.394-0.492,1.113-0.734c0.144-0.049,0.301,0.029,0.35,0.174c0.049,0.145-0.029,0.302-0.174,0.35
								c-0.556,0.188-0.853,0.549-0.855,0.553C105.109,317.487,105.016,317.523,104.926,317.514z"/>
						</g>
					</g>
				</g>
				<g>
					<g>
						<path style="fill:#373543;" d="M117.577,316.121c0.019-0.191-0.006-0.378-0.065-0.551c-0.16-0.473-0.578-0.834-1.107-0.896
							l-4.663-0.55c-0.367-0.043-0.714,0.066-0.983,0.278c-0.148,0.116-0.269,0.262-0.356,0.432
							c-0.074,0.14-0.124,0.294-0.143,0.459l-0.07,0.596c-0.119,1.01,0.163,2.022,0.775,2.778c0.611,0.751,1.356,1.192,2.219,1.312
							l0.123,0.014c0.998,0.118,1.982-0.159,2.775-0.781c0.805-0.63,1.313-1.537,1.433-2.553l0.06-0.504
							C117.576,316.146,117.577,316.133,117.577,316.121z M116.965,316.596c-0.103,0.869-0.538,1.643-1.224,2.181
							c-0.678,0.532-1.518,0.767-2.369,0.667l-0.112-0.013c-0.719-0.101-1.346-0.475-1.864-1.112
							c-0.52-0.639-0.758-1.502-0.656-2.364l0.07-0.596c0.051-0.429,0.438-0.735,0.867-0.684l4.663,0.55
							c0.427,0.05,0.735,0.438,0.684,0.867L116.965,316.596z"/>
					</g>
					<g>
						<path style="fill:#373543;" d="M127.452,316.961c-0.026-0.187-0.096-0.365-0.197-0.522c-0.209-0.32-0.554-0.551-0.963-0.599
							l-4.665-0.55c-0.541-0.064-1.045,0.206-1.305,0.649c-0.088,0.148-0.149,0.315-0.172,0.495
							c-0.003,0.009-0.004,0.016-0.005,0.025l-0.07,0.596c-0.119,1.01,0.165,2.022,0.777,2.778c0.609,0.75,1.356,1.192,2.218,1.312
							l0.125,0.015c0.998,0.118,1.982-0.159,2.775-0.781c0.803-0.63,1.313-1.537,1.433-2.553l0.06-0.504
							C127.476,317.2,127.474,317.078,127.452,316.961z M126.852,317.762c-0.103,0.869-0.538,1.643-1.226,2.181
							c-0.676,0.532-1.517,0.767-2.367,0.667l-0.114-0.013c-0.719-0.102-1.346-0.475-1.864-1.112
							c-0.518-0.639-0.758-1.502-0.656-2.364l0.07-0.596c0.051-0.429,0.44-0.735,0.867-0.684l4.665,0.55
							c0.427,0.05,0.735,0.438,0.684,0.867L126.852,317.762z"/>
					</g>
					<g>
						<path style="fill:#373543;" d="M110.759,314.403c-0.443-0.29-1.61-0.928-3.34-0.999l0.143,0.566
							c1.436,0.097,2.432,0.612,2.841,0.865c0.135,0.083,0.207,0.138,0.21,0.14l0.343-0.434
							C110.943,314.53,110.877,314.478,110.759,314.403z"/>
					</g>
					<g>
						<path style="fill:#373543;" d="M117.387,316.155l-0.119-0.541c0.034-0.007,0.837-0.182,1.686-0.082
							c0.903,0.106,1.452,0.452,1.475,0.467l-0.299,0.466c-0.004-0.002-0.472-0.293-1.241-0.384
							C118.136,315.994,117.395,316.154,117.387,316.155z"/>
					</g>
					<g>
						<path style="fill:#373543;" d="M129.02,316.134c-1.05,0.051-1.936,0.359-1.993,0.379l0.184,0.522
							c0.014-0.004,0.924-0.319,1.948-0.35L129.02,316.134z"/>
					</g>
				</g>
			</g>
		</g>
	</g>
	<g>
		<g>
			<g>
				<path style="fill:#FC461A;" d="M92.772,121.314c-2.686,0-4.871-2.185-4.871-4.871c0-2.686,2.186-4.872,4.871-4.872
					c2.686,0,4.871,2.186,4.871,4.872C97.644,119.129,95.458,121.314,92.772,121.314z M92.772,113.1c-1.843,0-3.343,1.5-3.343,3.343
					c0,1.843,1.5,3.343,3.343,3.343c1.843,0,3.343-1.5,3.343-3.343C96.116,114.599,94.616,113.1,92.772,113.1z"/>
			</g>
			<g>
				<path style="fill:#375BC9;" d="M75.305,99.446c-2.686,0-4.871-2.185-4.871-4.871c0-2.686,2.185-4.872,4.871-4.872
					c2.686,0,4.871,2.185,4.871,4.872C80.176,97.261,77.991,99.446,75.305,99.446z M75.305,91.231c-1.843,0-3.343,1.5-3.343,3.343
					c0,1.843,1.5,3.343,3.343,3.343c1.843,0,3.343-1.5,3.343-3.343C78.648,92.731,77.148,91.231,75.305,91.231z"/>
			</g>
			<g>
				<g>
					<g>
						<g>
							<g>
								<path style="fill:#375BC9;" d="M107.972,94.601c-0.422,0-0.764-0.342-0.764-0.764v-3.37c0-0.422,0.342-0.764,0.764-0.764
									c0.422,0,0.764,0.342,0.764,0.764v3.37C108.736,94.259,108.394,94.601,107.972,94.601z"/>
							</g>
						</g>
						<g>
							<g>
								<path style="fill:#375BC9;" d="M107.972,100.498c-0.422,0-0.764-0.342-0.764-0.764v-3.37c0-0.422,0.342-0.764,0.764-0.764
									c0.422,0,0.764,0.342,0.764,0.764v3.37C108.736,100.156,108.394,100.498,107.972,100.498z"/>
							</g>
						</g>
					</g>
					<g>
						<g>
							<g>
								<path style="fill:#375BC9;" d="M112.702,95.865h-3.027c-0.422,0-0.764-0.342-0.764-0.764c0-0.422,0.342-0.764,0.764-0.764
									h3.027c0.422,0,0.764,0.342,0.764,0.764C113.466,95.523,113.124,95.865,112.702,95.865z"/>
							</g>
						</g>
						<g>
							<g>
								<path style="fill:#375BC9;" d="M106.269,95.865h-3.027c-0.422,0-0.764-0.342-0.764-0.764c0-0.422,0.342-0.764,0.764-0.764
									h3.027c0.422,0,0.764,0.342,0.764,0.764C107.033,95.523,106.691,95.865,106.269,95.865z"/>
							</g>
						</g>
					</g>
				</g>
			</g>
			<g>
				<g>
					<g>
						<g>
							<g>
								<path style="fill:#FC461A;" d="M92.772,74.771c-0.422,0-0.764-0.342-0.764-0.764v-3.37c0-0.422,0.342-0.764,0.764-0.764
									c0.422,0,0.764,0.342,0.764,0.764v3.37C93.536,74.428,93.194,74.771,92.772,74.771z"/>
							</g>
						</g>
						<g>
							<g>
								<path style="fill:#FC461A;" d="M92.772,80.668c-0.422,0-0.764-0.342-0.764-0.764v-3.37c0-0.422,0.342-0.764,0.764-0.764
									c0.422,0,0.764,0.342,0.764,0.764v3.37C93.536,80.326,93.194,80.668,92.772,80.668z"/>
							</g>
						</g>
					</g>
					<g>
						<g>
							<g>
								<path style="fill:#FC461A;" d="M97.502,76.034h-3.027c-0.422,0-0.764-0.342-0.764-0.764c0-0.422,0.342-0.764,0.764-0.764
									h3.027c0.422,0,0.764,0.342,0.764,0.764C98.267,75.692,97.924,76.034,97.502,76.034z"/>
							</g>
						</g>
						<g>
							<g>
								<path style="fill:#FC461A;" d="M91.069,76.034h-3.027c-0.422,0-0.764-0.342-0.764-0.764c0-0.422,0.342-0.764,0.764-0.764
									h3.027c0.422,0,0.764,0.342,0.764,0.764C91.834,75.692,91.491,76.034,91.069,76.034z"/>
							</g>
						</g>
					</g>
				</g>
			</g>
		</g>
		<g>
			<g>
				<path style="fill:#375BC9;" d="M397.883,106.627c-2.686,0-4.871-2.185-4.871-4.871c0-2.686,2.185-4.872,4.871-4.872
					s4.872,2.185,4.872,4.872C402.755,104.441,400.57,106.627,397.883,106.627z M397.883,98.412c-1.843,0-3.343,1.5-3.343,3.343
					c0,1.843,1.5,3.343,3.343,3.343c1.843,0,3.343-1.5,3.343-3.343C401.227,99.912,399.727,98.412,397.883,98.412z"/>
			</g>
			<g>
				<path style="fill:#375BC9;" d="M405.363,145.096c-2.686,0-4.871-2.185-4.871-4.871c0-2.686,2.185-4.872,4.871-4.872
					s4.871,2.185,4.871,4.872C410.235,142.91,408.049,145.096,405.363,145.096z M405.363,136.881c-1.843,0-3.343,1.5-3.343,3.343
					c0,1.843,1.5,3.343,3.343,3.343c1.843,0,3.343-1.5,3.343-3.343C408.706,138.381,407.207,136.881,405.363,136.881z"/>
			</g>
			<g>
				<g>
					<g>
						<path style="fill:#FC461A;" d="M417.865,119.727c-0.422,0-0.764-0.342-0.764-0.764v-3.37c0-0.422,0.342-0.764,0.764-0.764
							c0.422,0,0.764,0.342,0.764,0.764v3.37C418.629,119.385,418.287,119.727,417.865,119.727z"/>
					</g>
					<g>
						<path style="fill:#FC461A;" d="M417.865,125.625c-0.422,0-0.764-0.342-0.764-0.764v-3.37c0-0.422,0.342-0.764,0.764-0.764
							c0.422,0,0.764,0.342,0.764,0.764v3.37C418.629,125.283,418.287,125.625,417.865,125.625z"/>
					</g>
				</g>
				<g>
					<g>
						<path style="fill:#FC461A;" d="M422.595,120.991h-3.027c-0.422,0-0.764-0.342-0.764-0.764c0-0.422,0.342-0.764,0.764-0.764
							h3.027c0.422,0,0.764,0.342,0.764,0.764C423.359,120.649,423.017,120.991,422.595,120.991z"/>
					</g>
					<g>
						<path style="fill:#FC461A;" d="M416.162,120.991h-3.027c-0.422,0-0.764-0.342-0.764-0.764c0-0.422,0.342-0.764,0.764-0.764
							h3.027c0.422,0,0.764,0.342,0.764,0.764C416.926,120.649,416.584,120.991,416.162,120.991z"/>
					</g>
				</g>
			</g>
			<g>
				<g>
					<g>
						<g>
							<g>
								<path style="fill:#FC461A;" d="M382.786,119.727c-0.422,0-0.764-0.342-0.764-0.764v-3.37c0-0.422,0.342-0.764,0.764-0.764
									c0.422,0,0.764,0.342,0.764,0.764v3.37C383.551,119.385,383.208,119.727,382.786,119.727z"/>
							</g>
						</g>
						<g>
							<g>
								<path style="fill:#FC461A;" d="M382.786,125.625c-0.422,0-0.764-0.342-0.764-0.764v-3.37c0-0.422,0.342-0.764,0.764-0.764
									c0.422,0,0.764,0.342,0.764,0.764v3.37C383.551,125.283,383.208,125.625,382.786,125.625z"/>
							</g>
						</g>
					</g>
					<g>
						<g>
							<g>
								<path style="fill:#FC461A;" d="M387.517,120.991h-3.027c-0.422,0-0.764-0.342-0.764-0.764c0-0.422,0.342-0.764,0.764-0.764
									h3.027c0.422,0,0.764,0.342,0.764,0.764C388.281,120.649,387.939,120.991,387.517,120.991z"/>
							</g>
						</g>
						<g>
							<g>
								<path style="fill:#FC461A;" d="M381.084,120.991h-3.027c-0.422,0-0.764-0.342-0.764-0.764c0-0.422,0.342-0.764,0.764-0.764
									h3.027c0.422,0,0.764,0.342,0.764,0.764C381.848,120.649,381.505,120.991,381.084,120.991z"/>
							</g>
						</g>
					</g>
				</g>
			</g>
		</g>
		<g>
			<path style="fill:#FC461A;" d="M417.361,55.275v16.286c0,2.153-1.747,3.9-3.9,3.9h-29.571l-8.928,3.203
				c-0.917,0.329-1.794-0.572-1.443-1.479l3.377-8.721V55.275c0-2.153,1.747-3.899,3.901-3.899h32.663
				C415.615,51.376,417.361,53.122,417.361,55.275z"/>
			<g>
				<g>
					<path style="fill:#DC2C0F;" d="M411.127,59.883h-27.129c-0.594,0-1.076-0.482-1.076-1.076l0,0c0-0.594,0.482-1.076,1.076-1.076
						h27.129c0.594,0,1.076,0.482,1.076,1.076l0,0C412.203,59.401,411.722,59.883,411.127,59.883z"/>
					<path style="fill:#DC2C0F;" d="M411.127,64.216h-27.129c-0.594,0-1.076-0.482-1.076-1.076l0,0c0-0.594,0.482-1.076,1.076-1.076
						h27.129c0.594,0,1.076,0.482,1.076,1.076l0,0C412.203,63.735,411.722,64.216,411.127,64.216z"/>
					<path style="fill:#DC2C0F;" d="M411.127,68.55h-27.129c-0.594,0-1.076-0.482-1.076-1.076l0,0c0-0.594,0.482-1.076,1.076-1.076
						h27.129c0.594,0,1.076,0.482,1.076,1.076l0,0C412.203,68.068,411.722,68.55,411.127,68.55z"/>
				</g>
			</g>
		</g>
		<g>
			<path style="fill:#375BC9;" d="M223.789,332.672v16.286c0,2.153-1.747,3.9-3.9,3.9h-29.571l-8.928,3.203
				c-0.917,0.33-1.794-0.572-1.443-1.478l3.377-8.721v-13.189c0-2.153,1.747-3.9,3.901-3.9h32.663
				C222.042,328.772,223.789,330.519,223.789,332.672z"/>
			<g>
				<g>
					<g>
						<path style="fill:#5573ED;" d="M217.555,337.279h-27.129c-0.594,0-1.076-0.482-1.076-1.076l0,0
							c0-0.594,0.482-1.076,1.076-1.076h27.129c0.594,0,1.076,0.482,1.076,1.076l0,0
							C218.631,336.798,218.149,337.279,217.555,337.279z"/>
					</g>
					<g>
						<path style="fill:#5573ED;" d="M217.555,341.613h-27.129c-0.594,0-1.076-0.482-1.076-1.076l0,0
							c0-0.594,0.482-1.076,1.076-1.076h27.129c0.594,0,1.076,0.482,1.076,1.076l0,0
							C218.631,341.131,218.149,341.613,217.555,341.613z"/>
					</g>
					<g>
						<path style="fill:#5573ED;" d="M217.555,345.947h-27.129c-0.594,0-1.076-0.482-1.076-1.076l0,0
							c0-0.594,0.482-1.076,1.076-1.076h27.129c0.594,0,1.076,0.482,1.076,1.076l0,0
							C218.631,345.465,218.149,345.947,217.555,345.947z"/>
					</g>
				</g>
			</g>
		</g>
	</g>
	<g>
		<path style="fill:#EDE4DD;" d="M422.562,434.447c0,1.949-11.122,3.529-24.842,3.529c-13.72,0-24.842-1.58-24.842-3.529
			c0-1.949,11.122-3.529,24.842-3.529C411.439,430.917,422.562,432.498,422.562,434.447z"/>
		<g>
			<path style="fill:#F99900;" d="M407.451,434.022h-19.767c-2.688,0-5.071-1.731-5.901-4.288l-8.383-25.803
				c-0.343-1.056,0.393-2.152,1.5-2.238c15.263-1.183,30.376-1.184,45.339-0.003c1.105,0.087,1.84,1.184,1.497,2.238l-8.384,25.806
				C412.522,432.29,410.139,434.022,407.451,434.022z"/>
			<path style="fill:#373543;" d="M419.98,403.566c0,0.686-9.974,1.243-22.278,1.243c-12.304,0-22.278-0.556-22.278-1.243
				c0-0.686,9.974-1.243,22.278-1.243C410.006,402.323,419.98,402.88,419.98,403.566z"/>
			<g>
				<g>
					<g>
						<g>
							<path style="fill:#3043BC;" d="M400.086,403.728l-2.174-0.324c3.986-26.756,5.728-55.714,5.327-88.529l2.198-0.027
								C405.84,347.782,404.09,376.855,400.086,403.728z"/>
						</g>
					</g>
					<g>
						<path style="fill:#3043BC;" d="M400.717,380.563c-0.202-8.992-11.97-15.61-12.089-15.676l1.063-1.924
							c0.531,0.293,12.993,7.29,13.224,17.551L400.717,380.563z"/>
					</g>
					<g>
						<path style="fill:#3043BC;" d="M403.58,373.077l-2.157-0.427c3.303-16.668,14.946-23.739,15.44-24.032l1.122,1.89
							C417.872,350.575,406.683,357.411,403.58,373.077z"/>
					</g>
				</g>
				<g>
					<path style="fill:#375BC9;" d="M364.089,363.581c-2.577,3.897,0.319,12.322,0.319,12.322l6.86,13.955l12.415-6.511
						c0,0-1.609-10.783-0.351-10.532c1.258,0.251,3.18,9.461,3.18,9.461l6-3.868c0,0-4.624-12.039-2.078-10.876
						c2.546,1.162,5.286,8.736,5.286,8.736s1.664-0.156,3.833-5.283c2.165-5.125,0.811-14.711-5.793-16.029
						c-6.601-1.317-10.469,2.651-10.469,2.651c-2.079-9.241-9.525-7.295-13.612-6.477c-4.087,0.821-5.783,7.674-5.783,7.674
						s10.658-1.796,9.999,0.688C373.236,361.974,364.089,363.581,364.089,363.581z M390.111,357.709c0,0,3.508-0.703,4.193,1.491
						c0.685,2.194-4.107,3.017-5.759,2.03C386.891,360.246,387.736,358.357,390.111,357.709z M370.761,367.385
						c1.88-1.856,4.195-1.178,4.195-1.178s0.38,2.004-1.374,4.017c-1.752,2.016-5.078,1.978-5.078,1.978
						S368.879,369.237,370.761,367.385z"/>
				</g>
				<g>
					<path style="fill:#375BC9;" d="M365.693,311.858c-3.726,3.813-2.294,13.877-2.294,13.877l4.685,17.115l15.314-4.625
						c0,0,0.518-12.43,1.873-11.878c1.355,0.552,1.528,11.286,1.528,11.286l7.556-3.043c0,0-2.592-14.486,0.011-12.636
						c2.604,1.85,4.045,10.927,4.045,10.927s1.899,0.183,5.432-5.095c3.529-5.277,4.075-16.312-3.042-19.21
						c-7.114-2.897-12.302,0.718-12.302,0.718c-0.341-10.803-9.105-10.224-13.86-10.187c-4.757,0.04-8.132,7.356-8.132,7.356
						s12.33,0.28,11.057,2.922C376.289,312.026,365.693,311.858,365.693,311.858z M396.118,310.877c0,0,4.082-0.033,4.378,2.573
						c0.295,2.606-5.252,2.497-6.891,1.036C391.964,313.027,393.318,311.093,396.118,310.877z M372.352,317.557
						c2.506-1.675,4.954-0.417,4.954-0.417s-0.005,2.327-2.404,4.206c-2.397,1.882-6.117,1.124-6.117,1.124
						S369.844,319.228,372.352,317.557z"/>
				</g>
				<g>
					<path style="fill:#375BC9;" d="M429.601,343.953c-0.498-2.582,10.546-0.02,10.546-0.02s-1.248-7.117-5.473-8.234
						c-4.224-1.114-11.887-3.611-14.786,5.686c0,0-3.75-4.317-10.779-3.422c-7.032,0.895-9.196,10.596-7.322,15.978
						c1.877,5.385,3.612,5.658,3.612,5.658s3.463-7.549,6.225-8.562c2.762-1.013-3.025,10.968-3.025,10.968l5.996,4.361
						c0,0,2.732-9.276,4.071-9.446c1.339-0.171-1.186,10.734-1.186,10.734l12.522,7.498l8.282-13.786c0,0,3.693-8.407,1.291-12.564
						C439.575,348.801,430.102,346.535,429.601,343.953z M414.097,344.729c-1.81,0.895-6.775-0.273-5.886-2.467
						c0.889-2.194,4.515-1.236,4.515-1.236C415.167,341.851,415.908,343.837,414.097,344.729z M434.274,357.305
						c0,0-3.493-0.188-5.175-2.367c-1.685-2.176-1.13-4.197-1.13-4.197s2.481-0.535,4.31,1.489
						C434.11,354.252,434.274,357.305,434.274,357.305z"/>
				</g>
			</g>
		</g>
	</g>
	<g>
		<ellipse style="fill:#EDE4DD;" cx="308.344" cy="435.867" rx="47.679" ry="8.319"/>
		<g>
			<g>
				<path style="fill:#DC2C0F;" d="M273.001,423.494c-17.577,0-31.877-14.3-31.877-31.878c0-17.577,14.3-31.877,31.877-31.877
					c17.578,0,31.878,14.3,31.878,31.877C304.88,409.194,290.58,423.494,273.001,423.494z M273.001,372.429
					c-10.58,0-19.187,8.607-19.187,19.187c0,10.581,8.607,19.189,19.187,19.189c10.581,0,19.188-8.608,19.188-19.189
					C292.189,381.036,283.582,372.429,273.001,372.429z"/>
			</g>
			<path style="fill:#FC461A;" d="M343.687,340.469v92.087c0,7.227-70.686,7.227-70.686,0v-92.087
				C273.001,330.918,343.687,330.918,343.687,340.469z"/>
			<g>
				<path style="fill:#DC2C0F;" d="M343.687,348.768v4.613c-7.316,1.9-19.198,4.093-35.075,4.093
					c-16.35,0-28.407-2.329-35.612-4.265v-4.625c6.725,1.895,18.9,4.455,35.612,4.455
					C324.836,353.039,336.805,350.643,343.687,348.768z"/>
			</g>
			<g>
				<path style="fill:#DC2C0F;" d="M343.687,359.795v4.611c-7.316,1.9-19.198,4.093-35.075,4.093
					c-16.35,0-28.407-2.326-35.612-4.263v-4.628c6.725,1.895,18.9,4.455,35.612,4.455
					C324.836,364.063,336.805,361.668,343.687,359.795z"/>
			</g>
			<path style="fill:#373543;" d="M340.132,339.461c0,2.283-14.232,4.133-31.787,4.133c-17.556,0-31.787-1.85-31.787-4.133
				s14.232-4.133,31.787-4.133C325.9,335.328,340.132,337.178,340.132,339.461z"/>
		</g>
	</g>
</g>
<g id="DESIGNED_BY_FREEPIK">
	<g>
		<g id="XMLID_1_">
			<g id="XMLID_20_">
				<path id="XMLID_28_" style="fill:#112129;" d="M260.104,465.465c-0.432,0.443-0.803,0.931-1.108,1.453l-0.465-0.241
					c-0.067-0.298-0.349-0.503-0.659-0.466c-0.331,0.039-0.568,0.339-0.529,0.67c0.039,0.331,0.339,0.568,0.67,0.529
					c0.065-0.008,0.127-0.026,0.183-0.052l0.452,0.234c-0.251,0.554-0.433,1.139-0.539,1.744l0.747,0.132
					c0.23-1.306,0.85-2.507,1.792-3.473L260.104,465.465z"/>
				<path id="XMLID_27_" style="fill:#112129;" d="M265.592,463.163c-0.171,0-0.341,0.006-0.51,0.017l-0.074-0.626
					c0.188-0.149,0.296-0.389,0.266-0.645c-0.046-0.393-0.402-0.674-0.795-0.628c-0.393,0.046-0.674,0.402-0.628,0.795
					c0.03,0.254,0.189,0.461,0.405,0.564l0.073,0.624c-0.714,0.116-1.403,0.332-2.06,0.646l0.327,0.684
					c0.934-0.447,1.942-0.673,2.995-0.673c0.496,0,0.993,0.053,1.475,0.158l0.161-0.741
					C266.692,463.222,266.142,463.163,265.592,463.163z"/>
				<path id="XMLID_26_" style="fill:#112129;" d="M272.194,465.711c0.331-0.04,0.566-0.341,0.526-0.672
					c-0.04-0.331-0.341-0.566-0.672-0.526c-0.309,0.038-0.535,0.304-0.53,0.609l-0.416,0.363c-0.418-0.43-0.89-0.813-1.408-1.139
					l-0.404,0.641c1.134,0.715,2.021,1.726,2.563,2.925l0.691-0.313c-0.251-0.554-0.568-1.072-0.942-1.545l0.402-0.351
					C272.065,465.716,272.129,465.719,272.194,465.711z"/>
				<path id="XMLID_25_" style="fill:#112129;" d="M265.044,473.372c-0.386,0.023-0.775,0.035-1.157,0.035
					c-0.88,0-1.733-0.061-2.478-0.179c-0.39-0.062-0.846-0.155-1.27-0.292c1.046,1.861,3.069,3.125,5.388,3.125
					c2.855,0,5.262-1.916,5.95-4.504c-0.682,0.449-1.505,0.825-2.459,1.123C267.839,473.047,266.464,473.286,265.044,473.372z"/>
				<path id="XMLID_21_" style="fill:#112129;" d="M265.592,464.68c-3.352,0-6.08,2.666-6.08,5.943c0,0.426,0.046,0.849,0.137,1.261
					c0.673,0.483,2.706,0.89,5.348,0.731c2.879-0.173,5.297-0.957,6.672-2.159c-0.005-0.195-0.021-0.39-0.045-0.582
					C271.244,466.913,268.65,464.68,265.592,464.68z M263.432,471.194c-1.02,0-1.85-0.83-1.85-1.85c0-1.02,0.83-1.85,1.85-1.85
					c1.02,0,1.85,0.83,1.85,1.85C265.282,470.365,264.452,471.194,263.432,471.194z M268.17,470.286c-0.75,0-1.36-0.61-1.36-1.36
					s0.61-1.361,1.36-1.361c0.75,0,1.361,0.61,1.361,1.361S268.92,470.286,268.17,470.286z"/>
			</g>
			<path id="XMLID_18_" style="fill:#112129;" d="M281.595,466.547c-0.295-0.116-0.805-0.309-1.382-0.237
				c-0.551,0.069-0.844,0.341-0.844,1.007v0.866h2.228v1.717h-2.228v5.455h-1.932v-5.455h-1.34v-1.717h1.34v-0.888
				c0-1.68,0.896-2.783,2.568-2.783c0.643,0,1.157,0.122,1.59,0.308L281.595,466.547z"/>
			<path id="XMLID_16_" style="fill:#112129;" d="M286.298,469.879c-0.177-0.03-0.358-0.046-0.526-0.046
				c-0.896,0-1.51,0.548-1.51,1.614v3.908h-1.932v-7.172h1.873v0.785c0.451-0.673,1.14-0.977,2.021-0.977
				c0.414,0,0.848,0.128,1.094,0.337L286.298,469.879z"/>
			<path id="XMLID_13_" style="fill:#112129;" d="M293.965,471.757c0,0.222-0.015,0.489-0.037,0.651h-5.085
				c0.207,1.036,0.933,1.488,1.843,1.488c0.622,0,1.295-0.252,1.813-0.688l1.132,1.243c-0.814,0.748-1.85,1.088-3.057,1.088
				c-2.198,0-3.723-1.495-3.723-3.753c0-2.258,1.48-3.797,3.627-3.797C292.544,467.99,293.958,469.522,293.965,471.757z
				 M288.851,471.091h3.175c-0.177-0.918-0.733-1.436-1.562-1.436C289.554,469.655,289.021,470.203,288.851,471.091z"/>
			<path id="XMLID_10_" style="fill:#112129;" d="M301.618,471.757c0,0.222-0.015,0.489-0.037,0.651h-5.085
				c0.207,1.036,0.933,1.488,1.843,1.488c0.622,0,1.295-0.252,1.813-0.688l1.132,1.243c-0.814,0.748-1.85,1.088-3.057,1.088
				c-2.198,0-3.723-1.495-3.723-3.753c0-2.258,1.48-3.797,3.627-3.797C300.197,467.99,301.611,469.522,301.618,471.757z
				 M296.504,471.091h3.175c-0.178-0.918-0.733-1.436-1.562-1.436C297.207,469.655,296.674,470.203,296.504,471.091z"/>
			<path id="XMLID_7_" style="fill:#112129;" d="M309.964,471.764c0,2.154-1.495,3.775-3.471,3.775
				c-0.962,0-1.643-0.378-2.109-0.933v3.708h-1.924v-10.133h1.887v0.792c0.466-0.585,1.155-0.984,2.139-0.984
				C308.469,467.99,309.964,469.61,309.964,471.764z M304.287,471.764c0,1.132,0.747,1.976,1.843,1.976
				c1.14,0,1.85-0.881,1.85-1.976c0-1.095-0.71-1.976-1.85-1.976C305.035,469.788,304.287,470.632,304.287,471.764z"/>
			<path id="XMLID_4_" style="fill:#112129;" d="M313.068,465.836c0,0.696-0.54,1.229-1.236,1.229c-0.696,0-1.229-0.533-1.229-1.229
				c0-0.696,0.533-1.243,1.229-1.243C312.527,464.592,313.068,465.14,313.068,465.836z M312.809,475.354h-1.932v-7.172h1.932
				V475.354z"/>
			<path id="XMLID_2_" style="fill:#112129;" d="M316.032,470.736l2.701-2.554h2.368l-3.479,3.375l3.501,3.797h-2.376l-2.716-2.901
				v2.901H314.1v-10.658h1.932V470.736z"/>
		</g>
		<g>
			<path style="fill:#112129;" d="M184.412,475.289v-1.055c-0.527,0.718-1.391,1.23-2.387,1.23c-1.846,0-3.149-1.406-3.149-3.706
				c0-2.256,1.289-3.721,3.149-3.721c0.952,0,1.816,0.469,2.387,1.245v-3.765h1.099v9.77H184.412z M184.412,473.37v-3.208
				c-0.395-0.615-1.245-1.143-2.124-1.143c-1.421,0-2.27,1.172-2.27,2.739c0,1.567,0.85,2.724,2.27,2.724
				C183.168,474.483,184.017,473.986,184.412,473.37z"/>
			<path style="fill:#112129;" d="M186.932,471.744c0-2.051,1.465-3.706,3.486-3.706c2.139,0,3.398,1.67,3.398,3.794v0.279h-5.727
				c0.088,1.333,1.025,2.446,2.549,2.446c0.805,0,1.626-0.322,2.182-0.894l0.527,0.718c-0.703,0.703-1.655,1.084-2.812,1.084
				C188.44,475.465,186.932,473.956,186.932,471.744z M190.403,468.947c-1.509,0-2.256,1.274-2.314,2.358h4.643
				C192.718,470.25,192.015,468.947,190.403,468.947z"/>
			<path style="fill:#112129;" d="M194.607,474.351l0.571-0.791c0.469,0.542,1.362,1.011,2.329,1.011c1.084,0,1.67-0.513,1.67-1.216
				c0-1.714-4.38-0.659-4.38-3.281c0-1.098,0.952-2.036,2.636-2.036c1.201,0,2.051,0.454,2.622,1.026l-0.513,0.762
				c-0.424-0.513-1.201-0.894-2.109-0.894c-0.967,0-1.567,0.483-1.567,1.113c0,1.552,4.38,0.527,4.38,3.281
				c0,1.187-0.952,2.138-2.783,2.138C196.306,475.465,195.325,475.113,194.607,474.351z"/>
			<path style="fill:#112129;" d="M201.477,466.471c0-0.41,0.337-0.747,0.732-0.747c0.41,0,0.747,0.337,0.747,0.747
				c0,0.41-0.337,0.732-0.747,0.732C201.814,467.203,201.477,466.881,201.477,466.471z M201.667,475.289v-7.075h1.099v7.075H201.667
				z"/>
			<path style="fill:#112129;" d="M204.582,477.105l0.556-0.82c0.586,0.703,1.289,0.967,2.3,0.967c1.172,0,2.27-0.571,2.27-2.124
				v-1.011c-0.513,0.718-1.377,1.26-2.373,1.26c-1.845,0-3.149-1.377-3.149-3.662c0-2.27,1.289-3.677,3.149-3.677
				c0.952,0,1.802,0.469,2.373,1.245v-1.069h1.098v6.87c0,2.344-1.641,3.076-3.369,3.076
				C206.237,478.16,205.417,477.926,204.582,477.105z M209.709,473.253v-3.091c-0.381-0.615-1.23-1.143-2.109-1.143
				c-1.421,0-2.27,1.128-2.27,2.695c0,1.553,0.849,2.695,2.27,2.695C208.478,474.41,209.328,473.868,209.709,473.253z"/>
			<path style="fill:#112129;" d="M217.413,475.289v-4.629c0-1.245-0.63-1.641-1.582-1.641c-0.865,0-1.685,0.527-2.095,1.099v5.17
				h-1.099v-7.075h1.099v1.025c0.498-0.586,1.465-1.201,2.519-1.201c1.48,0,2.256,0.747,2.256,2.285v4.966H217.413z"/>
			<path style="fill:#112129;" d="M219.932,471.744c0-2.051,1.465-3.706,3.486-3.706c2.139,0,3.398,1.67,3.398,3.794v0.279h-5.727
				c0.088,1.333,1.025,2.446,2.549,2.446c0.806,0,1.626-0.322,2.183-0.894l0.527,0.718c-0.703,0.703-1.655,1.084-2.812,1.084
				C221.441,475.465,219.932,473.956,219.932,471.744z M223.404,468.947c-1.509,0-2.256,1.274-2.314,2.358h4.643
				C225.718,470.25,225.015,468.947,223.404,468.947z"/>
			<path style="fill:#112129;" d="M233.35,475.289v-1.055c-0.527,0.718-1.392,1.23-2.388,1.23c-1.846,0-3.149-1.406-3.149-3.706
				c0-2.256,1.289-3.721,3.149-3.721c0.952,0,1.817,0.469,2.388,1.245v-3.765h1.098v9.77H233.35z M233.35,473.37v-3.208
				c-0.396-0.615-1.245-1.143-2.124-1.143c-1.421,0-2.27,1.172-2.27,2.739c0,1.567,0.849,2.724,2.27,2.724
				C232.105,474.483,232.954,473.986,233.35,473.37z"/>
			<path style="fill:#112129;" d="M239.692,475.289v-9.77h1.098v3.765c0.572-0.776,1.421-1.245,2.388-1.245
				c1.845,0,3.149,1.465,3.149,3.721c0,2.299-1.304,3.706-3.149,3.706c-0.996,0-1.86-0.513-2.388-1.23v1.055H239.692z
				 M242.9,474.483c1.436,0,2.285-1.157,2.285-2.724c0-1.568-0.85-2.739-2.285-2.739c-0.864,0-1.728,0.527-2.109,1.143v3.208
				C241.171,473.986,242.036,474.483,242.9,474.483z"/>
			<path style="fill:#112129;" d="M247.528,477.061c0.161,0.073,0.425,0.117,0.601,0.117c0.483,0,0.805-0.161,1.055-0.747
				l0.469-1.069l-2.959-7.148h1.187l2.358,5.8l2.344-5.8h1.201l-3.545,8.51c-0.425,1.025-1.143,1.421-2.08,1.435
				c-0.234,0-0.601-0.044-0.806-0.103L247.528,477.061z"/>
		</g>
	</g>
</g>
</svg>
